<?xml version="1.0" encoding="UTF-8"?>
<svg version="1.1" xmlns="http://www.w3.org/2000/svg" width="500" height="500">
<path d="M0 0 C12.29213937 2.04868989 22.062639 10.91386244 29.91796875 20.2890625 C37.20734029 30.59537188 40.04167426 41.45350445 40.55859375 53.8347168 C40.60084579 54.83783999 40.64309784 55.84096319 40.68663025 56.87448406 C41.18371934 70.06740797 41.10956688 83.26540719 41.06846237 96.46510148 C41.05828868 100.18389724 41.05493552 103.90269903 41.05102539 107.62150574 C41.04006028 117.01851781 41.02046838 126.41550457 41 135.8125 C40.97786442 146.01034709 40.95736304 156.2081845 40.94658184 166.40605086 C40.94163923 170.80636703 40.93184384 175.20663598 40.91815186 179.60693324 C40.91246118 181.6823695 40.90910437 183.75779414 40.9067688 185.83323669 C40.90392317 188.34901649 40.89752273 190.86479612 40.88668823 193.3805542 C40.68898044 203.25992239 40.68898044 203.25992239 42 213 C44.52490533 215.58466944 44.52490533 215.58466944 48 217 C49.16273438 217.57621094 50.32546875 218.15242187 51.5234375 218.74609375 C52.80339924 219.31867759 54.08746836 219.88214734 55.375 220.4375 C56.0661792 220.7368042 56.7573584 221.0361084 57.46948242 221.34448242 C77.0796669 229.63862602 101.26844593 236.16419607 122 228 C128.21090017 225.03451386 133.10509385 221.78671772 137 216 C137.4640625 215.31550781 137.928125 214.63101563 138.40625 213.92578125 C143.17991279 205.90337573 143.42029634 197.13233833 141.3359375 188.1328125 C137.43787323 177.25212875 130.12249874 170.24659089 120 165 C111.02321049 161.12430675 102.05899228 160.84292613 92.4140625 160.71875 C90.76777359 160.69113586 90.76777359 160.69113586 89.08822632 160.66296387 C84.40998773 160.5845011 79.73161723 160.51618702 75.05322266 160.44775391 C71.63175925 160.39622157 68.21042671 160.33894021 64.7890625 160.28125 C63.7224942 160.26767456 62.6559259 160.25409912 61.55703735 160.2401123 C60.57866913 160.22339478 59.6003009 160.20667725 58.59228516 160.18945312 C57.72737457 160.17692505 56.86246399 160.16439697 55.97134399 160.15148926 C54 160 54 160 53 159 C52.90731001 157.64905018 52.88252674 156.29332909 52.88647461 154.93920898 C52.88658791 153.64798378 52.88658791 153.64798378 52.88670349 152.33067322 C52.89186478 151.39526199 52.89702606 150.45985077 52.90234375 149.49609375 C52.9037587 148.54307877 52.90517365 147.59006378 52.90663147 146.60816956 C52.91224848 143.55124835 52.92480384 140.49439923 52.9375 137.4375 C52.94251281 135.37044376 52.94707609 133.30338638 52.95117188 131.23632812 C52.96222344 126.15752412 52.97949945 121.0787743 53 116 C56.58597066 115.02343425 59.7398599 114.89989775 63.46875 114.9375 C65.39521362 114.95043091 65.39521362 114.95043091 67.3605957 114.96362305 C68.03675934 114.96985687 68.71292297 114.9760907 69.40957642 114.98251343 C101.01559562 116.46483284 101.01559562 116.46483284 129 104 C131.53894518 101.2139939 133.31133666 98.36103732 135 95 C135.41121094 94.21238281 135.82242188 93.42476563 136.24609375 92.61328125 C140.85493419 82.19953451 140.69200388 69.49837651 136.875 58.875 C130.10442383 43.86280326 118.2486019 37.79007786 103.98095703 30.96191406 C101.90372464 29.95325056 99.85166665 28.90117434 97.796875 27.84765625 C95.02385934 26.45709924 92.39467387 25.38266362 89.375 24.625 C83.87638576 23.07324383 78.75642434 20.84140808 73.53125 18.546875 C70.24680221 17.10811247 66.94362223 15.73261819 63.625 14.375 C50.44357566 8.88715131 50.44357566 8.88715131 49 6 C56.26052343 2.4868435 64.67030401 2.84264982 72.57421875 2.83203125 C73.46051468 2.82870285 74.34681061 2.82537445 75.25996399 2.82194519 C77.12472012 2.81691453 78.98948514 2.81453566 80.85424805 2.81469727 C83.66275385 2.81251919 86.47086073 2.79434492 89.27929688 2.77539062 C116.99427386 2.68846705 143.81964812 8.17725053 164.3046875 28.171875 C177.76298518 42.29333517 183.44576349 59.81235565 183.28125 79.1015625 C182.54418572 89.31809242 179.90172615 99.52657195 174 108 C173.49726563 108.74507813 172.99453125 109.49015625 172.4765625 110.2578125 C161.54952893 125.39149749 146.1943108 130.26299761 129 135 C129.64324219 135.10957031 130.28648437 135.21914062 130.94921875 135.33203125 C152.48223872 139.11029296 171.35719844 144.98696981 185.1171875 163.17578125 C196.31453047 179.9717957 199.78900576 198.88133353 196 218.6875 C190.1091062 240.32414734 175.36039337 258.02471357 156.19140625 269.25 C140.81584851 277.68115039 126.25466526 280.14053422 108.9140625 280.23828125 C107.8963936 280.24439454 107.8963936 280.24439454 106.85816574 280.25063133 C103.25945096 280.27141716 99.66077333 280.28574498 96.06201172 280.29516602 C93.12169369 280.30397856 90.18185556 280.32474908 87.24169922 280.35668945 C66.3971737 280.57822039 48.42615241 279.45977605 29 271 C27.74703125 270.46632813 27.74703125 270.46632813 26.46875 269.921875 C-4.28800986 255.74181039 -27.09025962 227.08355523 -38.78173828 195.91601562 C-52.78885638 156.02556164 -48.3853159 117.66843394 -30.59375 80.11328125 C-26.41350401 71.63545452 -21.68923663 63.71660524 -14 58 C-13 59 -13 59 -12.90666199 62.33563232 C-12.9160295 63.85497942 -12.93093975 65.37429766 -12.94995117 66.89355469 C-12.95623032 67.72137955 -12.96250946 68.54920441 -12.96897888 69.40211487 C-12.98287187 71.20823501 -12.99881698 73.01434023 -13.01653099 74.82042694 C-13.04312657 77.68889671 -13.0610271 80.55728963 -13.07600403 83.42584229 C-13.11876833 91.58530649 -13.16583001 99.74462235 -13.24682617 107.90380859 C-13.29569519 112.89110839 -13.32444781 117.87819119 -13.34057045 122.86569977 C-13.35040075 124.75852944 -13.36750698 126.65133714 -13.39235497 128.54402924 C-13.57362275 142.68352606 -11.97135451 153.94520285 -5.375 166.6875 C-4.48941406 168.42580078 -4.48941406 168.42580078 -3.5859375 170.19921875 C-2.14704065 173.03088691 -2.14704065 173.03088691 0 175 C0 117.25 0 59.5 0 0 Z " fill="#5C7791" transform="translate(165,111)"/>
<path d="M0 0 C12.2519828 1.87250054 22.13603396 11.00145804 29.91796875 20.2890625 C37.20734029 30.59537188 40.04167426 41.45350445 40.55859375 53.8347168 C40.60084579 54.83783999 40.64309784 55.84096319 40.68663025 56.87448406 C41.18371934 70.06740797 41.10956688 83.26540719 41.06846237 96.46510148 C41.05828868 100.18389724 41.05493552 103.90269903 41.05102539 107.62150574 C41.04006028 117.01851781 41.02046838 126.41550457 41 135.8125 C40.97786442 146.01034709 40.95736304 156.2081845 40.94658184 166.40605086 C40.94163923 170.80636703 40.93184384 175.20663598 40.91815186 179.60693324 C40.91246118 181.6823695 40.90910437 183.75779414 40.9067688 185.83323669 C40.90392317 188.34901649 40.89752273 190.86479612 40.88668823 193.3805542 C40.68898044 203.25992239 40.68898044 203.25992239 42 213 C44.52490533 215.58466944 44.52490533 215.58466944 48 217 C49.16273438 217.57621094 50.32546875 218.15242187 51.5234375 218.74609375 C52.80339924 219.31867759 54.08746836 219.88214734 55.375 220.4375 C56.0661792 220.7368042 56.7573584 221.0361084 57.46948242 221.34448242 C72.51763038 227.70910894 87.33726939 231.14440535 103.6875 231.625 C105.33008789 231.68300781 105.33008789 231.68300781 107.00585938 231.7421875 C109.670418 231.83527252 112.33499022 231.92109852 115 232 C112.50983496 234.49016504 111.73506656 234.25659165 108.30078125 234.265625 C106.86931763 234.27215088 106.86931763 234.27215088 105.40893555 234.27880859 C104.38711182 234.26930176 103.36528809 234.25979492 102.3125 234.25 C101.26682861 234.24178223 100.22115723 234.23356445 99.14379883 234.22509766 C72.03899796 233.83648338 49.72934136 224.24253418 27.25 209.5 C26.62391846 209.09104492 25.99783691 208.68208984 25.3527832 208.26074219 C21.12677786 205.38033358 21.12677786 205.38033358 20 202 C20.66 201.67 21.32 201.34 22 201 C22 200.34 22 199.68 22 199 C20.824375 198.6596875 20.824375 198.6596875 19.625 198.3125 C16.31827043 196.65913521 16.28226023 195.33387661 15 192 C12.95894361 191.11306697 12.95894361 191.11306697 11 191 C11 190.01 11 189.02 11 188 C10.34 188 9.68 188 9 188 C9 187.34 9 186.68 9 186 C7.68 186.33 6.36 186.66 5 187 C5 184 5 184 5.6875 181.5 C5.790625 180.675 5.89375 179.85 6 179 C5.51660156 178.54367187 5.03320312 178.08734375 4.53515625 177.6171875 C3 176 3 176 2.671875 173.9140625 C2.69765625 173.15867187 2.7234375 172.40328125 2.75 171.625 C2.77449219 170.82191406 2.79898438 170.01882813 2.82421875 169.19140625 C3 167 3 167 3.5625 164.5625 C4.2808005 160.35531138 3.53137625 156.21013494 3 152 C2.67 153.65 2.34 155.3 2 157 C1.67 157 1.34 157 1 157 C0.8270983 142.27090208 0.66074121 127.54173571 0.5 112.8125 C0.48812275 111.72450104 0.4762455 110.63650208 0.46400833 109.51553345 C0.06760294 73.00851288 -0.14712808 36.50911558 0 0 Z " fill="#808D9D" transform="translate(165,111)"/>
<path d="M0 0 C0.88629593 -0.0033284 1.77259186 -0.0066568 2.68574524 -0.01008606 C4.55050137 -0.01511672 6.41526639 -0.01749559 8.2800293 -0.01733398 C11.0885351 -0.01951206 13.89664198 -0.03768633 16.70507812 -0.05664062 C44.42005511 -0.1435642 71.24542937 5.34521928 91.73046875 25.33984375 C105.34107062 39.62111296 110.74354171 57.05034233 110.66015625 76.5 C110.31287465 81.93495703 109.02271396 86.97793744 107.42578125 92.16796875 C106.10578125 92.16796875 104.78578125 92.16796875 103.42578125 92.16796875 C103.24015625 93.52921875 103.24015625 93.52921875 103.05078125 94.91796875 C102.50468448 97.75767198 101.85314322 99.69387466 100.42578125 102.16796875 C99.76578125 102.16796875 99.10578125 102.16796875 98.42578125 102.16796875 C98.42578125 103.15796875 98.42578125 104.14796875 98.42578125 105.16796875 C97.76578125 105.16796875 97.10578125 105.16796875 96.42578125 105.16796875 C95.43578125 107.14796875 95.43578125 107.14796875 94.42578125 109.16796875 C93.76578125 109.16796875 93.10578125 109.16796875 92.42578125 109.16796875 C92.30009766 110.0496875 92.30009766 110.0496875 92.171875 110.94921875 C90.68196317 115.37995132 86.2232226 117.73963459 82.42578125 120.16796875 C79.15742492 121.72066435 75.8543985 123.01555251 72.42578125 124.16796875 C72.42578125 123.50796875 72.42578125 122.84796875 72.42578125 122.16796875 C69.45578125 121.83796875 66.48578125 121.50796875 63.42578125 121.16796875 C63.42578125 120.50796875 63.42578125 119.84796875 63.42578125 119.16796875 C56.6200999 116.56770126 56.6200999 116.56770126 49.42578125 116.16796875 C49.42578125 115.50796875 49.42578125 114.84796875 49.42578125 114.16796875 C50.08578125 114.16796875 50.74578125 114.16796875 51.42578125 114.16796875 C51.09578125 113.17796875 50.76578125 112.18796875 50.42578125 111.16796875 C51.16828125 110.46671875 51.91078125 109.76546875 52.67578125 109.04296875 C55.35495434 106.24201507 57.29817229 103.39369846 59.42578125 100.16796875 C60.08578125 99.54921875 60.74578125 98.93046875 61.42578125 98.29296875 C64.26646028 95.27474728 65.73419914 91.9185668 67.42578125 88.16796875 C68.02390625 86.99234375 68.62203125 85.81671875 69.23828125 84.60546875 C72.87393035 74.26406688 69.35608224 62.97537271 65.03515625 53.43359375 C61.81287122 46.89517072 59.22484447 43.24678983 52.42578125 40.16796875 C51.04134306 39.13887917 49.66771628 38.09519642 48.30078125 37.04296875 C38.25133769 29.8429101 25.99014745 25.37817794 14.42578125 21.16796875 C12.19488461 20.33927781 9.96559762 19.50623498 7.73828125 18.66796875 C6.66191406 18.26578125 5.58554688 17.86359375 4.4765625 17.44921875 C1.42578125 16.16796875 1.42578125 16.16796875 -0.96484375 14.6953125 C-4.99342751 12.33726422 -9.36950366 10.99722973 -13.77929688 9.50585938 C-17.93220859 8.02796873 -20.67532089 6.65417579 -23.57421875 3.16796875 C-16.31369532 -0.34518775 -7.90391474 0.01061857 0 0 Z " fill="#C7CACF" transform="translate(237.57421875,113.83203125)"/>
<path d="M0 0 C0.33 0 0.66 0 1 0 C0.94875977 1.0202124 0.89751953 2.0404248 0.84472656 3.09155273 C-0.42873241 29.58423989 0.36573951 53.47241338 8.73046875 78.91796875 C9.8168265 82.25249419 10.53860285 85.51450583 11 89 C11.66 89 12.32 89 13 89 C13.33 90.98 13.66 92.96 14 95 C15.24546405 92.50907189 14.7767578 91.58919267 14 89 C15.9375 89.625 15.9375 89.625 18 91 C18.75 94.125 18.75 94.125 19 97 C19.66 97 20.32 97 21 97 C21.37125 98.134375 21.7425 99.26875 22.125 100.4375 C23.9997078 105.4785803 26.90918188 109.63497274 30 114 C32 117 32 117 32 120 C32.66 120 33.32 120 34 120 C34.5775 121.093125 35.155 122.18625 35.75 123.3125 C37.45672651 126.3358441 39.10530868 128.03574518 42 130 C42 130.66 42 131.32 42 132 C42.66 132 43.32 132 44 132 C48.76744186 136.30232558 48.76744186 136.30232558 50 140 C50.66 140 51.32 140 52 140 C52.33 141.32 52.66 142.64 53 144 C54.32 144 55.64 144 57 144 C57.33 144.99 57.66 145.98 58 147 C60.09228189 148.82130191 60.09228189 148.82130191 62.5625 150.5625 C64.07702143 151.66117779 65.56617913 152.79790775 67 154 C67 154.66 67 155.32 67 156 C68.65 156.33 70.3 156.66 72 157 C72 157.66 72 158.32 72 159 C72.71414062 159.27070313 73.42828125 159.54140625 74.1640625 159.8203125 C77.0227179 161.00945014 79.66646292 162.37715571 82.375 163.875 C83.33535156 164.40351563 84.29570312 164.93203125 85.28515625 165.4765625 C87.47899419 166.70763703 89.64844071 167.96795151 91.8125 169.25 C94.87872137 170.93341566 97.67980587 171.92935769 101 173 C102.10214844 173.39058594 103.20429688 173.78117188 104.33984375 174.18359375 C130.25719085 183.21667564 155.85495591 183.7150147 182 175 C182.99 175.66 183.98 176.32 185 177 C183.25452616 177.63753123 181.50323091 178.25912145 179.75 178.875 C178.77546875 179.22304688 177.8009375 179.57109375 176.796875 179.9296875 C166.737823 182.76526389 156.83259226 183.31790787 146.42578125 183.3359375 C145.04876071 183.34239174 143.67174144 183.34912186 142.29472351 183.35610962 C139.42472159 183.36799147 136.55483918 183.37180002 133.68481445 183.37060547 C130.77863613 183.37044317 127.87308984 183.38430507 124.96704102 183.41162109 C104.23504596 183.60362189 86.31749839 182.41245898 67 174 C65.74703125 173.46632813 65.74703125 173.46632813 64.46875 172.921875 C33.71199014 158.74181039 10.90974038 130.08355523 -0.78173828 98.91601562 C-12.35745748 65.94987007 -11.79456616 32.63545007 0 0 Z " fill="#4B5060" transform="translate(127,208)"/>
<path d="M0 0 C5.97826273 -0.55427601 10.75749261 1.42690611 16.25 3.5 C17.21784424 3.8594873 18.18568848 4.21897461 19.18286133 4.58935547 C43.81985667 13.87040152 68.73333377 24.11718988 81 49 C83.10018854 54.53686069 83.55143321 60.13321857 84 66 C82.19921875 65.81640625 82.19921875 65.81640625 80 65 C78.39453125 62.77734375 78.39453125 62.77734375 76.8125 59.9375 C70.34693399 49.33122044 61.07872901 42.78252027 49.1328125 39.43655396 C44.88517462 38.56712773 40.57524225 38.63739453 36.25390625 38.5859375 C35.24279282 38.56657135 34.23167938 38.5472052 33.18992615 38.5272522 C29.98086818 38.4677801 26.77177372 38.42120084 23.5625 38.375 C21.37824012 38.33679043 19.19399483 38.29773698 17.00976562 38.2578125 C11.67330719 38.16210542 6.3367599 38.07696443 1 38 C-0.61155935 33.740166 -1.24796319 30.23043234 -1.23046875 25.68359375 C-1.22853516 24.50732422 -1.22660156 23.33105469 -1.22460938 22.11914062 C-1.21236328 20.90419922 -1.20011719 19.68925781 -1.1875 18.4375 C-1.18685547 17.21869141 -1.18621094 15.99988281 -1.18554688 14.74414062 C-1.13699258 4.9091994 -1.13699258 4.9091994 0 0 Z " fill="#41D5F0" transform="translate(218,131)"/>
<path d="M0 0 C5.92548332 5.38498315 8.21752769 11.71619657 11 19 C11.45761719 20.17046875 11.91523438 21.3409375 12.38671875 22.546875 C21.42885553 47.41953953 20.54912222 74.26162049 16 100 C15.88132568 100.73452393 15.76265137 101.46904785 15.64038086 102.22583008 C15.32339233 103.10404419 15.32339233 103.10404419 15 104 C14.01 104.33 13.02 104.66 12 105 C11.69707031 103.88882813 11.39414062 102.77765625 11.08203125 101.6328125 C4.83440949 79.22006847 -6.231778 64.59078145 -25 51 C-24.15425307 46.68032481 -22.18781061 45.04613014 -19 42 C-7.63561145 30.63561145 -3.44428336 15.23433026 0 0 Z " fill="#585F71" transform="translate(364,192)"/>
<path d="M0 0 C0.66 0.33 1.32 0.66 2 1 C1.99111755 2.06107468 1.98223511 3.12214935 1.9730835 4.21537781 C1.89165532 14.26239438 1.83187126 24.30934315 1.79275131 34.35661602 C1.77196254 39.52084397 1.74380573 44.68480346 1.69824219 49.84887695 C1.65447164 54.84153153 1.63079756 59.83392946 1.62049103 64.82676125 C1.61315528 66.72236986 1.5988318 68.61796597 1.57707977 70.51346397 C1.42139763 84.65464759 3.02835765 95.94464683 9.625 108.6875 C10.21539062 109.84636719 10.80578125 111.00523437 11.4140625 112.19921875 C12.85295935 115.03088691 12.85295935 115.03088691 15 117 C15.04898438 115.90945313 15.09796875 114.81890625 15.1484375 113.6953125 C15.6789199 102.73527653 16.67399375 91.89127462 18 81 C18.33 81 18.66 81 19 81 C18.98839844 82.19496094 18.97679687 83.38992187 18.96484375 84.62109375 C18.80702058 94.48849129 18.80702058 94.48849129 19.5625 104.3125 C19.96611119 107.71436575 19.6888638 109.72789697 19 113 C19.22868094 116.68815293 19.22868094 116.68815293 20 120 C20.66 120.33 21.32 120.66 22 121 C21.34 122.32 20.68 123.64 20 125 C20.66 125.33 21.32 125.66 22 126 C20.515 126.495 20.515 126.495 19 127 C16.8125 125.6875 16.8125 125.6875 15 124 C15 123.34 15 122.68 15 122 C14.401875 121.95875 13.80375 121.9175 13.1875 121.875 C9.90249924 120.5609997 9.42680407 118.11302707 8 115 C7.34 114.67 6.68 114.34 6 114 C5.19164668 111.44169499 4.59220088 108.86090012 3.9765625 106.25 C3.65429688 105.5075 3.33203125 104.765 3 104 C0.97559168 103.10975663 0.97559168 103.10975663 -1 103 C-1.103125 102.0925 -1.20625 101.185 -1.3125 100.25 C-1.79459262 96.79849633 -2.61658978 93.4948868 -3.5 90.125 C-4.63581561 85.74086147 -5.40417405 81.55253542 -5.69140625 77.03515625 C-5.92317598 74.90460252 -5.92317598 74.90460252 -7.00488281 72.72973633 C-8.1000737 69.72548478 -8.24388218 67.47725178 -8.23046875 64.2890625 C-8.22853516 63.20882812 -8.22660156 62.12859375 -8.22460938 61.015625 C-8.21236328 59.89671875 -8.20011719 58.7778125 -8.1875 57.625 C-8.18685547 56.51382813 -8.18621094 55.40265625 -8.18554688 54.2578125 C-8.10784991 39.75437834 -8.10784991 39.75437834 -5 34 C-4.43113242 31.68502499 -3.99844286 29.36663037 -3.5625 27.0234375 C-3 25 -3 25 -1 23 C-0.63168919 21.06742145 -0.63168919 21.06742145 -0.5859375 18.8671875 C-0.52792969 17.65869141 -0.52792969 17.65869141 -0.46875 16.42578125 C-0.4378125 15.58402344 -0.406875 14.74226562 -0.375 13.875 C-0.33632812 13.02550781 -0.29765625 12.17601562 -0.2578125 11.30078125 C-0.16343506 9.20088316 -0.08062414 7.10047109 0 5 C-1.65 5.66 -3.3 6.32 -5 7 C-3.70700306 4.11562221 -2.34058637 2.12780579 0 0 Z " fill="#2B4B6C" transform="translate(150,169)"/>
<path d="M0 0 C0.33 0 0.66 0 1 0 C1.33 9.57 1.66 19.14 2 29 C19.49 28.67 36.98 28.34 55 28 C56.12126781 24.20211302 56.12126781 24.20211302 56 21 C60.98296033 22.48468092 63.88593066 25.38643963 67.4375 29 C68.01008545 29.57580811 68.5826709 30.15161621 69.17260742 30.74487305 C73.64685395 35.36730304 77.13971098 40.21411855 80 46 C80.99 45.01 80.99 45.01 82 44 C83.8417395 49.64800112 84.54775239 55.08507728 85 61 C83.19921875 60.81640625 83.19921875 60.81640625 81 60 C79.39453125 57.77734375 79.39453125 57.77734375 77.8125 54.9375 C71.34693399 44.33122044 62.07872901 37.78252027 50.1328125 34.43655396 C45.88517462 33.56712773 41.57524225 33.63739453 37.25390625 33.5859375 C36.24279282 33.56657135 35.23167938 33.5472052 34.18992615 33.5272522 C30.98086818 33.4677801 27.77177372 33.42120084 24.5625 33.375 C22.37824012 33.33679043 20.19399483 33.29773698 18.00976562 33.2578125 C12.67330719 33.16210542 7.3367599 33.07696443 2 33 C0.35197475 28.67179527 -0.23933471 25.13014416 -0.1953125 20.5078125 C-0.18886719 19.30898437 -0.18242187 18.11015625 -0.17578125 16.875 C-0.15902344 15.6375 -0.14226562 14.4 -0.125 13.125 C-0.11597656 11.86429688 -0.10695312 10.60359375 -0.09765625 9.3046875 C-0.07415808 6.2029296 -0.04130334 3.10156348 0 0 Z " fill="#2E84B2" transform="translate(217,136)"/>
<path d="M0 0 C0.66 0 1.32 0 2 0 C3.175625 1.485 3.175625 1.485 4.375 3 C5.24125 3.99 6.1075 4.98 7 6 C8.32 6 9.64 6 11 6 C11 6.66 11 7.32 11 8 C11.66 8 12.32 8 13 8 C13 8.99 13 9.98 13 11 C13.598125 11.061875 14.19625 11.12375 14.8125 11.1875 C17 12 17 12 18.4375 14.5 C19.77767835 17.25461912 19.77767835 17.25461912 22.6875 17.8125 C23.8321875 17.9053125 23.8321875 17.9053125 25 18 C24.67 18.99 24.34 19.98 24 21 C24.66 21.33 25.32 21.66 26 22 C25.01 22.33 24.02 22.66 23 23 C23 23.66 23 24.32 23 25 C23.7425 25.26941406 24.485 25.53882813 25.25 25.81640625 C27.89776774 26.95599947 29.73351626 28.18183362 32 29.9375 C45.3409438 39.44118277 60.41407219 46.15876161 76 51 C73.00098979 51.82611624 70.09495404 52.26527118 67 52.5625 C66.154375 52.64628906 65.30875 52.73007812 64.4375 52.81640625 C60.42573608 53.11857437 57.23275031 52.93973995 53.4375 51.6875 C52.67308594 51.44386719 51.90867188 51.20023437 51.12109375 50.94921875 C49 50 49 50 47.515625 48.46875 C45.5493983 46.56333444 43.9790406 46.31489171 41.3125 45.8125 C40.10013672 45.57466797 40.10013672 45.57466797 38.86328125 45.33203125 C38.24839844 45.22246094 37.63351563 45.11289062 37 45 C37 44.34 37 43.68 37 43 C35.88625 42.814375 35.88625 42.814375 34.75 42.625 C32.19858515 42.04513299 30.2732427 41.26291261 28 40 C28 39.01 28 38.02 28 37 C27.2575 37.12375 26.515 37.2475 25.75 37.375 C23 37 23 37 20.6875 34.125 C19 31 19 31 19 29 C18.34 29 17.68 29 17 29 C16 21.25 16 21.25 16 19 C13.37795342 15.45252521 11.39433325 13.26040875 7.6875 10.8125 C6.800625 10.214375 5.91375 9.61625 5 9 C5 8.01 5 7.02 5 6 C4.34 6 3.68 6 3 6 C2.01 4.02 1.02 2.04 0 0 Z " fill="#2EB7E8" transform="translate(163,291)"/>
<path d="M0 0 C0.81373452 9.02341169 -1.34603693 15.79163295 -5 24 C-5.66 23.34 -6.32 22.68 -7 22 C-6.6730244 19.38419521 -6.17960932 17.35921863 -5 15 C-5.99 15 -6.98 15 -8 15 C-8.33 17.31 -8.66 19.62 -9 22 C-9.66 22 -10.32 22 -11 22 C-11.33 22.99 -11.66 23.98 -12 25 C-11.34 25.33 -10.68 25.66 -10 26 C-10.66 26 -11.32 26 -12 26 C-12.33 26.99 -12.66 27.98 -13 29 C-13.48210937 29.45761719 -13.96421875 29.91523438 -14.4609375 30.38671875 C-16.39527495 32.41433644 -16.87379623 34.12550191 -17.625 36.8125 C-17.98464844 38.05966797 -17.98464844 38.05966797 -18.3515625 39.33203125 C-22.57409415 56.70545965 -21.05981153 76.71114409 -17 94 C-16.59742884 95.9152628 -16.20061637 97.8317558 -15.8125 99.75 C-15.65394531 100.46671875 -15.49539062 101.1834375 -15.33203125 101.921875 C-14.95097762 104.30682242 -14.94520053 106.58882335 -15 109 C-18.48538262 105.28623048 -19.11466745 101.21209737 -20.0625 96.375 C-20.31519653 95.10257446 -20.31519653 95.10257446 -20.57299805 93.80444336 C-21.07220057 91.20661175 -21.54334889 88.60562708 -22 86 C-22.12826172 85.27474121 -22.25652344 84.54948242 -22.38867188 83.80224609 C-24.07632811 73.68822718 -24.08250871 63.73447163 -23.75 53.5 C-23.71173096 52.31865479 -23.67346191 51.13730957 -23.6340332 49.92016602 C-23.18190161 39.49311163 -21.67586669 30.50415673 -17.3125 21 C-16.9616333 20.22398437 -16.6107666 19.44796875 -16.24926758 18.6484375 C-7.5857742 0 -7.5857742 0 0 0 Z " fill="#68C6E2" transform="translate(150,174)"/>
<path d="M0 0 C0.33 0 0.66 0 1 0 C1 10.56 1 21.12 1 32 C4.67511719 31.95359375 8.35023438 31.9071875 12.13671875 31.859375 C15.73444236 31.82809349 19.33215026 31.80385462 22.92993164 31.78027344 C25.41177256 31.7602781 27.89356709 31.73307274 30.37524414 31.69824219 C33.96251947 31.64919036 37.54916678 31.62690942 41.13671875 31.609375 C42.22893234 31.58872986 43.32114594 31.56808472 44.44645691 31.54681396 C55.83688435 31.5435678 66.51443584 34.62801797 76 41 C76.67546875 41.433125 77.3509375 41.86625 78.046875 42.3125 C86.72978173 48.77419803 91.64523575 60.4496313 93.75 70.8125 C94.40698329 77.01905975 93.39293849 82.69333326 90 88 C87.34765625 89.8046875 87.34765625 89.8046875 85 91 C87 86 87 86 88.046875 83.7734375 C90.76897153 75.85258285 89.89340517 65.76705145 86.3125 58.26953125 C80.23483553 47.76023644 71.92936633 41.13551158 60.265625 37.5078125 C53.32132746 35.95133202 46.50582571 35.81005473 39.4140625 35.71875 C38.31653656 35.70034058 37.21901062 35.68193115 36.08822632 35.66296387 C31.40998773 35.5845011 26.73161723 35.51618702 22.05322266 35.44775391 C18.63175925 35.39622157 15.21042671 35.33894021 11.7890625 35.28125 C10.18921005 35.26088684 10.18921005 35.26088684 8.55703735 35.2401123 C7.57866913 35.22339478 6.6003009 35.20667725 5.59228516 35.18945312 C4.72737457 35.17692505 3.86246399 35.16439697 2.97134399 35.15148926 C1 35 1 35 0 34 C-0.08847743 31.47905924 -0.11527301 28.98569107 -0.09765625 26.46484375 C-0.0962413 25.71159317 -0.09482635 24.95834259 -0.09336853 24.18226624 C-0.08775376 21.7673044 -0.07519883 19.35243399 -0.0625 16.9375 C-0.0574869 15.30403779 -0.05292366 13.67057414 -0.04882812 12.03710938 C-0.03777954 8.02470415 -0.02050506 4.01236759 0 0 Z " fill="#303545" transform="translate(218,236)"/>
<path d="M0 0 C4.13063409 0.55222381 6.60015921 1.85035442 9.9375 4.3125 C10.81277344 4.94414062 11.68804687 5.57578125 12.58984375 6.2265625 C13.38519531 6.81179688 14.18054688 7.39703125 15 8 C19.3032302 11.13777202 23.45341452 13.06567951 28.39453125 14.94140625 C30.85812299 15.94235582 33.10613214 17.10149539 35.4375 18.375 C40.27805199 20.8488897 45.27173022 22.54047224 50.4375 24.1875 C51.212146 24.43741699 51.98679199 24.68733398 52.78491211 24.94482422 C63.01903672 28.11270771 73.00168924 29.31090391 83.6875 29.625 C84.78255859 29.66367187 85.87761719 29.70234375 87.00585938 29.7421875 C89.670418 29.83527252 92.33499022 29.92109852 95 30 C92.50983496 32.49016504 91.73506656 32.25659165 88.30078125 32.265625 C87.34647217 32.26997559 86.39216309 32.27432617 85.40893555 32.27880859 C83.87619995 32.26454834 83.87619995 32.26454834 82.3125 32.25 C81.26682861 32.24178223 80.22115723 32.23356445 79.14379883 32.22509766 C52.03899796 31.83648338 29.72934136 22.24253418 7.25 7.5 C6.62391846 7.09104492 5.99783691 6.68208984 5.3527832 6.26074219 C1.12677786 3.38033358 1.12677786 3.38033358 0 0 Z " fill="#BFD0D6" transform="translate(185,313)"/>
<path d="M0 0 C0.66 0.33 1.32 0.66 2 1 C3.49055571 1.11704133 4.98567139 1.17875322 6.48046875 1.2109375 C28.43827812 1.83546849 48.64867832 4.91347706 65 21 C66.59206848 22.95882772 67.77948051 24.78087366 69 27 C68.34 27 67.68 27 67 27 C66.67 27.66 66.34 28.32 66 29 C65.30777344 28.12988281 65.30777344 28.12988281 64.6015625 27.2421875 C59.67045701 21.33655524 54.8019905 17.53456908 48 14 C47.12601562 13.5359375 46.25203125 13.071875 45.3515625 12.59375 C35.77290001 7.64621262 27.37764747 5.82416275 16.5625 6 C5.02520199 6.10237796 -6.47867554 5.55617127 -18 5 C-18 4.67 -18 4.34 -18 4 C-13.71 4 -9.42 4 -5 4 C-5 3.34 -5 2.68 -5 2 C-2.625 0.9375 -2.625 0.9375 0 0 Z " fill="#B9C2C8" transform="translate(279,246)"/>
<path d="M0 0 C2.64 0.66 5.28 1.32 8 2 C7.67 2.99 7.34 3.98 7 5 C8.98 5 10.96 5 13 5 C13.33 6.32 13.66 7.64 14 9 C16.97 9.33 19.94 9.66 23 10 C22.34 9.67 21.68 9.34 21 9 C21.33 8.34 21.66 7.68 22 7 C22.92039063 7.44730469 23.84078125 7.89460938 24.7890625 8.35546875 C33.3728543 12.4732686 41.96829915 15.9801555 51 19 C48.00098979 19.82611624 45.09495404 20.26527118 42 20.5625 C41.154375 20.64628906 40.30875 20.73007812 39.4375 20.81640625 C35.42573608 21.11857437 32.23275031 20.93973995 28.4375 19.6875 C27.29087891 19.32205078 27.29087891 19.32205078 26.12109375 18.94921875 C24 18 24 18 22.515625 16.46875 C20.5493983 14.56333444 18.9790406 14.31489171 16.3125 13.8125 C15.50425781 13.65394531 14.69601563 13.49539063 13.86328125 13.33203125 C12.94095703 13.16767578 12.94095703 13.16767578 12 13 C12 12.34 12 11.68 12 11 C11.2575 10.87625 10.515 10.7525 9.75 10.625 C7.0513253 10.01166484 5.26156854 9.58309798 3 8 C0 2.85714286 0 2.85714286 0 0 Z " fill="#2297D1" transform="translate(188,323)"/>
<path d="M0 0 C0.33 0 0.66 0 1 0 C0.99907821 0.69168966 0.99815641 1.38337933 0.99720669 2.09602928 C0.97508462 18.95684152 0.9585559 35.81764914 0.94818783 52.67847252 C0.94304014 60.8323659 0.93602664 68.98624957 0.92456055 77.14013672 C0.91456695 84.25030226 0.90813547 91.36046077 0.90591151 98.47063315 C0.90461232 102.23244894 0.90157689 105.99424461 0.89426994 109.75605392 C0.88743584 113.30348567 0.88539795 116.85088917 0.88689232 120.39832687 C0.88649002 122.30724194 0.8811336 124.216154 0.87557983 126.12506104 C0.38099021 137.34188529 0.38099021 137.34188529 3 148 C1.0463562 147.31469727 1.0463562 147.31469727 -1 146 C-1.60470581 143.79272461 -1.60470581 143.79272461 -1.74169922 140.96484375 C-1.79694763 139.88058105 -1.85219604 138.79631836 -1.90911865 137.67919922 C-2.08304158 130.63818242 -2.14302708 123.60516524 -2.1328125 116.5625 C-2.13348767 114.9077147 -2.13445947 113.2529295 -2.13571167 111.59814453 C-2.13717532 108.15575197 -2.13507512 104.71338559 -2.13037109 101.27099609 C-2.12463847 96.86168874 -2.1279834 92.4524418 -2.13394356 88.0431366 C-2.13755469 84.63738549 -2.13640865 81.23164876 -2.13381577 77.82589722 C-2.13314989 76.1992085 -2.13396306 74.57251848 -2.13629532 72.9458313 C-2.13883482 70.67999797 -2.13496454 68.41426346 -2.12939453 66.1484375 C-2.12859894 64.86114746 -2.12780334 63.57385742 -2.12698364 62.24755859 C-2.02216479 59.5668561 -1.67898721 57.55206742 -1 55 C-0.8871659 53.16788499 -0.82414436 51.33242005 -0.79467773 49.49707031 C-0.7647599 47.84581146 -0.7647599 47.84581146 -0.73423767 46.16119385 C-0.70916893 44.38757477 -0.70916893 44.38757477 -0.68359375 42.578125 C-0.66281265 41.36300232 -0.64203156 40.14787964 -0.62062073 38.89593506 C-0.55523172 35.01401427 -0.49628949 31.1320258 -0.4375 27.25 C-0.39430468 24.61848258 -0.35069006 21.98697201 -0.30664062 19.35546875 C-0.19956117 12.9037174 -0.09777486 6.45189871 0 0 Z " fill="#2F3A48" transform="translate(205,178)"/>
<path d="M0 0 C7.6860209 3.72415445 10.40133098 12.48446118 13.11328125 20.14453125 C18.14023333 38.70375243 15.2513631 57.38347405 6 74 C5.01 74 4.02 74 3 74 C4.06972738 70.77589143 5.15192352 67.55700807 6.25390625 64.34375 C6.69015428 63.06251706 7.12635159 61.78126685 7.5625 60.5 C7.78357422 59.86191406 8.00464844 59.22382813 8.23242188 58.56640625 C13.11742269 44.13277848 12.08335613 27.59050131 5.8125 13.6875 C5.46832031 13.01074219 5.12414062 12.33398438 4.76953125 11.63671875 C4 10 4 10 4 8 C3.34 8 2.68 8 2 8 C0.23537317 4.91190305 0 3.76687864 0 0 Z " fill="#CBCFD3" transform="translate(347,274)"/>
<path d="M0 0 C0.99 0 1.98 0 3 0 C3.08085433 21.12554941 2.88277939 42.24542244 2.62768555 63.36914062 C2.57184704 68.0143873 2.52195927 72.65967955 2.47328281 77.30500603 C2.43438344 80.9201146 2.39130517 84.5351646 2.34705925 88.15021133 C2.32677559 89.86537036 2.30804079 91.58054846 2.29092598 93.29574203 C2.26681733 95.67233626 2.23680002 98.0487865 2.20532227 100.42529297 C2.1995668 101.1223082 2.19381134 101.81932343 2.18788147 102.53746033 C2.13355968 106.14122482 1.84309027 109.49280575 1 113 C0.67 113 0.34 113 0 113 C0 75.71 0 38.42 0 0 Z " fill="#C9D2E0" transform="translate(166,155)"/>
<path d="M0 0 C7.36897044 -0.0252908 14.73792974 -0.04284179 22.10693359 -0.05493164 C24.61540139 -0.05997003 27.12386624 -0.06680084 29.63232422 -0.07543945 C33.2314527 -0.08752661 36.83054247 -0.09323315 40.4296875 -0.09765625 C42.12035843 -0.10539818 42.12035843 -0.10539818 43.84518433 -0.11329651 C44.88611237 -0.11337204 45.92704041 -0.11344757 46.99951172 -0.11352539 C47.91884491 -0.115746 48.8381781 -0.11796661 49.78536987 -0.12025452 C52 0 52 0 54 1 C54 1.66 54 2.32 54 3 C55.093125 2.835 56.18625 2.67 57.3125 2.5 C62.84330921 2.45079351 66.21952405 5.64619205 70.38671875 8.95703125 C72.8340778 10.87028803 75.30586217 12.46118614 78 14 C78.66 13.34 79.32 12.68 80 12 C81.8417395 17.64800112 82.54775239 23.08507728 83 29 C81.19921875 28.81640625 81.19921875 28.81640625 79 28 C77.39453125 25.77734375 77.39453125 25.77734375 75.8125 22.9375 C69.34693399 12.33122044 60.07872901 5.78252027 48.1328125 2.43655396 C43.88517462 1.56712773 39.57524225 1.63739453 35.25390625 1.5859375 C34.24279282 1.56657135 33.23167938 1.5472052 32.18992615 1.5272522 C28.98086818 1.4677801 25.77177372 1.42120084 22.5625 1.375 C20.37824012 1.33679043 18.19399483 1.29773698 16.00976562 1.2578125 C10.67330719 1.16210542 5.3367599 1.07696443 0 1 C0 0.67 0 0.34 0 0 Z " fill="#0D2747" transform="translate(219,168)"/>
<path d="M0 0 C1.485 0.99 1.485 0.99 3 2 C3 2.66 3 3.32 3 4 C5.31 4.66 7.62 5.32 10 6 C10.33 7.32 10.66 8.64 11 10 C12.32 10 13.64 10 15 10 C15.33 10.99 15.66 11.98 16 13 C18.09228189 14.82130191 18.09228189 14.82130191 20.5625 16.5625 C22.07702143 17.66117779 23.56617913 18.79790775 25 20 C25 20.66 25 21.32 25 22 C26.65 22.33 28.3 22.66 30 23 C30 23.66 30 24.32 30 25 C26.59687262 23.94124926 23.98646769 22.99097846 21 21 C21.33 21.99 21.66 22.98 22 24 C21.5625 26.6875 21.5625 26.6875 21 29 C20.67 27.68 20.34 26.36 20 25 C18.35 25 16.7 25 15 25 C14.46375 23.989375 13.9275 22.97875 13.375 21.9375 C11.36542448 18.38098505 8.93816009 15.47271277 6.171875 12.48046875 C5 11 5 11 5 9 C4.34 9 3.68 9 3 9 C0.56839395 5.63316085 0 4.26649636 0 0 Z " fill="#161C2E" transform="translate(169,342)"/>
<path d="M0 0 C5.32027602 1.77342534 7.37703377 7.27985575 10 12 C14.32674976 20.75682488 16.59983595 31.28783912 14.30078125 40.93359375 C13.34797793 43.40786957 12.2801275 45.6797689 11 48 C10.62875 48.67933594 10.2575 49.35867187 9.875 50.05859375 C8.93697589 51.71737904 7.97058147 53.36005199 7 55 C6.67 55.99 6.34 56.98 6 58 C4.515 58.495 4.515 58.495 3 59 C2.360625 60.010625 1.72125 61.02125 1.0625 62.0625 C0.0415625 63.5165625 0.0415625 63.5165625 -1 65 C-5 65 -5 65 -7 64 C-6.49210937 63.68289062 -5.98421875 63.36578125 -5.4609375 63.0390625 C0.54503302 58.96759934 3.80990489 54.46963215 7 48 C7.34160156 47.33613281 7.68320312 46.67226562 8.03515625 45.98828125 C12.1051616 36.35278021 11.36411919 23.48789989 7.8125 13.875 C5.62617877 8.94640727 3.04855258 4.44217662 0 0 Z " fill="#444B5B" transform="translate(294,156)"/>
<path d="M0 0 C-0.14363527 1.37523135 -0.29003517 2.75017402 -0.4375 4.125 C-0.51871094 4.89070312 -0.59992188 5.65640625 -0.68359375 6.4453125 C-0.90410064 8.22570146 -1.1833496 9.99937452 -1.50708008 11.76391602 C-3.95128369 27.81043351 -2.69870585 45.24892581 1 61 C1.40257116 62.9152628 1.79938363 64.8317558 2.1875 66.75 C2.34605469 67.46671875 2.50460938 68.1834375 2.66796875 68.921875 C3.04902238 71.30682242 3.05479947 73.58882335 3 76 C-0.48538262 72.28623048 -1.11466745 68.21209737 -2.0625 63.375 C-2.31519653 62.10257446 -2.31519653 62.10257446 -2.57299805 60.80444336 C-3.07220057 58.20661175 -3.54334889 55.60562708 -4 53 C-4.12826172 52.27474121 -4.25652344 51.54948242 -4.38867188 50.80224609 C-7.02242265 35.01834139 -7.50209372 16.63632903 -4 1 C-2 0 -2 0 0 0 Z " fill="#B2D3DD" transform="translate(132,207)"/>
<path d="M0 0 C3.53391969 1.48171072 5.59930326 3.45548562 8.125 6.3125 C9.14980469 7.45138672 9.14980469 7.45138672 10.1953125 8.61328125 C12.00891715 11.01179303 13.02777353 13.16851568 14 16 C10.24101705 16 9.36618615 14.96571869 6.5 12.625 C1.25166849 8.20009616 1.25166849 8.20009616 -5.1875 6.375 C-6.445625 6.25125 -7.70375 6.1275 -9 6 C-9 5.34 -9 4.68 -9 4 C-17.91 3.67 -26.82 3.34 -36 3 C-31.73793739 0.8689687 -28.73672683 0.69234698 -24.125 0.75 C-23.38064697 0.75386719 -22.63629395 0.75773438 -21.86938477 0.76171875 C-14.80272688 0.86996242 -7.96027108 1.76457946 -1 3 C-0.67 2.01 -0.34 1.02 0 0 Z " fill="#1C6691" transform="translate(282,165)"/>
<path d="M0 0 C0.99 0 1.98 0 3 0 C2.51387725 9.23633228 -4.51679124 17.83710788 -11 24 C-24.54192229 35 -24.54192229 35 -32 35 C-32 34.01 -32 33.02 -32 32 C-31.03578125 31.54109375 -30.0715625 31.0821875 -29.078125 30.609375 C-27.80187267 29.99001725 -26.52584263 29.37020128 -25.25 28.75 C-24.61578125 28.44964844 -23.9815625 28.14929688 -23.328125 27.83984375 C-19.55266406 25.991441 -16.87524691 24.03647571 -14 21 C-13.34 21 -12.68 21 -12 21 C-11.9175 20.4225 -11.835 19.845 -11.75 19.25 C-10.78202213 16.3460664 -9.31305716 14.96259396 -7 13 C-6.34 13 -5.68 13 -5 13 C-5 12.01 -5 11.02 -5 10 C-4.34 10 -3.68 10 -3 10 C-3 8.68 -3 7.36 -3 6 C-2.34 6 -1.68 6 -1 6 C-0.67 4.02 -0.34 2.04 0 0 Z " fill="#6D7682" transform="translate(341,206)"/>
<path d="M0 0 C9.53389306 0.39724554 15.49831903 7.00888767 21.87890625 13.56640625 C26.05729753 18.36039845 29.71013152 23.19793806 30.375 29.625 C30.25125 30.40875 30.1275 31.1925 30 32 C27.99370026 29.39297679 26.21804584 26.73980038 24.5 23.9375 C18.63490246 15.13985368 11.16796942 8.03049097 1.80078125 3.12109375 C1.20652344 2.75113281 0.61226563 2.38117188 0 2 C0 1.34 0 0.68 0 0 Z " fill="#9EDAE9" transform="translate(268,152)"/>
<path d="M0 0 C2.125 0.9375 2.125 0.9375 4 2 C2.25452616 2.63753123 0.50323091 3.25912145 -1.25 3.875 C-2.22453125 4.22304688 -3.1990625 4.57109375 -4.203125 4.9296875 C-14.20623913 7.74949539 -24.01804798 8.29627606 -34.34521484 8.20581055 C-36.49719151 8.18752387 -38.6487347 8.18530205 -40.80078125 8.18554688 C-48.9059293 8.16428724 -56.93251383 7.83699206 -65 7 C-64.67 6.01 -64.34 5.02 -64 4 C-56.57742025 4.89582859 -56.57742025 4.89582859 -53.21362305 5.50268555 C-36.59241335 8.07485026 -15.3741355 7.68706775 0 0 Z " fill="#252839" transform="translate(308,383)"/>
<path d="M0 0 C2.5 2.3125 2.5 2.3125 5 5 C5 5.99 5 6.98 5 8 C5.66 8 6.32 8 7 8 C7.86625 9.6396875 7.86625 9.6396875 8.75 11.3125 C10.45672651 14.3358441 12.10530868 16.03574518 15 18 C15 18.66 15 19.32 15 20 C15.66 20 16.32 20 17 20 C21.76744186 24.30232558 21.76744186 24.30232558 23 28 C19.34683329 26.75023244 18.21934164 26.32901247 16 23 C15.34 23.66 14.68 24.32 14 25 C0 8.95642702 0 8.95642702 0 0 Z " fill="#1F3A5C" transform="translate(154,320)"/>
<path d="M0 0 C0.99 0 1.98 0 3 0 C3.33 0.66 3.66 1.32 4 2 C5.0725 1.979375 6.145 1.95875 7.25 1.9375 C10.29900274 1.98831671 12.15570454 2.22287009 15 3 C16.44052734 3.33837891 16.44052734 3.33837891 17.91015625 3.68359375 C18.95042969 3.93238281 19.99070313 4.18117188 21.0625 4.4375 C22.10535156 4.68371094 23.14820313 4.92992187 24.22265625 5.18359375 C27 6 27 6 30 8 C27.75013201 8.16843931 25.50009983 8.33468654 23.25 8.5 C21.99703125 8.5928125 20.7440625 8.685625 19.453125 8.78125 C15.08629624 9.05788169 11.5810444 9.05465932 7.4375 7.6875 C6.67308594 7.44386719 5.90867188 7.20023437 5.12109375 6.94921875 C2.8190514 5.919023 1.53968068 4.99223858 0 3 C0 2.01 0 1.02 0 0 Z " fill="#3080B0" transform="translate(209,335)"/>
<path d="M0 0 C0.99 0.33 1.98 0.66 3 1 C1.515 4.465 1.515 4.465 0 8 C0.66 8.33 1.32 8.66 2 9 C1.814375 9.928125 1.62875 10.85625 1.4375 11.8125 C0.75876119 15.01343771 0.75876119 15.01343771 2 18 C1.62939453 19.89257812 1.62939453 19.89257812 1.0078125 22.03125 C-0.27867546 27.37612098 0.19024247 32.09277674 0.875 37.5 C1.64786962 44.05507941 2.12083224 50.39450409 2 57 C1.67 57 1.34 57 1 57 C-1.58234988 46.37854899 -2.30139692 36.05251005 -2.3125 25.125 C-2.32023438 23.29062378 -2.32023438 23.29062378 -2.328125 21.41918945 C-2.27232554 14.0750833 -1.60143802 7.17026227 0 0 Z " fill="#2D7BA8" transform="translate(131,211)"/>
<path d="M0 0 C0.33 0 0.66 0 1 0 C1.81373452 9.02341169 -0.34603693 15.79163295 -4 24 C-4.66 23.34 -5.32 22.68 -6 22 C-5.6730244 19.38419521 -5.17960932 17.35921863 -4 15 C-4.99 15 -5.98 15 -7 15 C-7.33 17.31 -7.66 19.62 -8 22 C-8.99 21.67 -9.98 21.34 -11 21 C-10.74143574 15.69943273 -8.86727059 13.38871975 -5.42578125 9.66796875 C-3.66647483 7.60982124 -2.85129927 5.5538978 -2 3 C-1.34 2.01 -0.68 1.02 0 0 Z " fill="#33C8E4" transform="translate(149,174)"/>
<path d="M0 0 C15.51 0 31.02 0 47 0 C46.67 0.66 46.34 1.32 46 2 C40.0069812 3.42078066 33.50100338 3.15995064 27.375 3.125 C26.51342285 3.12161621 25.6518457 3.11823242 24.76416016 3.11474609 C2.94113087 2.94113087 2.94113087 2.94113087 0 0 Z " fill="#ECF5F8" transform="translate(223,227)"/>
<path d="M0 0 C0.33 0 0.66 0 1 0 C0.98839844 1.19496094 0.97679687 2.38992187 0.96484375 3.62109375 C0.80702058 13.48849129 0.80702058 13.48849129 1.5625 23.3125 C1.96848843 26.73440248 1.83905615 28.72768103 1 32 C0.6246606 34.66240745 0.31680883 37.32975417 0 40 C-1.65 39.67 -3.3 39.34 -5 39 C-5.33 37.35 -5.66 35.7 -6 34 C-5.01 34.66 -4.02 35.32 -3 36 C-2.95101562 34.90945313 -2.90203125 33.81890625 -2.8515625 32.6953125 C-2.3210801 21.73527653 -1.32600625 10.89127462 0 0 Z " fill="#415874" transform="translate(168,250)"/>
<path d="M0 0 C0.66 0.33 1.32 0.66 2 1 C3.66565749 1.15222973 5.33656496 1.24917215 7.0078125 1.31640625 C7.99394531 1.35830078 8.98007812 1.40019531 9.99609375 1.44335938 C11.54490234 1.50233398 11.54490234 1.50233398 13.125 1.5625 C14.68541016 1.62727539 14.68541016 1.62727539 16.27734375 1.69335938 C18.85142528 1.7996288 21.42560508 1.90166583 24 2 C20.18235566 6.20957513 16.32919563 5.67416522 10.828125 5.94921875 C1.21899048 6.15406464 -8.40848231 5.52551364 -18 5 C-18 4.67 -18 4.34 -18 4 C-13.71 4 -9.42 4 -5 4 C-5 3.34 -5 2.68 -5 2 C-2.625 0.9375 -2.625 0.9375 0 0 Z " fill="#9BA2AE" transform="translate(279,246)"/>
<path d="M0 0 C1.485 0.99 1.485 0.99 3 2 C3 2.66 3 3.32 3 4 C5.31 4.66 7.62 5.32 10 6 C10.33 7.32 10.66 8.64 11 10 C12.32 10 13.64 10 15 10 C15.33 10.99 15.66 11.98 16 13 C16.66 13.33 17.32 13.66 18 14 C17.67 14.66 17.34 15.32 17 16 C15.35 15.01 13.7 14.02 12 13 C12 14.65 12 16.3 12 18 C9.03595495 15.19195732 6.55500981 12.81684226 5 9 C4.34 9 3.68 9 3 9 C0.56839395 5.63316085 0 4.26649636 0 0 Z " fill="#192943" transform="translate(169,342)"/>
<path d="M0 0 C0.33 0 0.66 0 1 0 C1.3751634 6.50283224 1.3751634 6.50283224 -0.44140625 8.91015625 C-2.27555175 11.36947415 -2.6363047 13.17980254 -3.125 16.1875 C-3.91388401 20.91388401 -3.91388401 20.91388401 -5 22 C-6.17316006 28.26554373 -6.3217543 34.5794456 -6.5625 40.9375 C-6.60568359 42.00291016 -6.64886719 43.06832031 -6.69335938 44.16601562 C-6.79874489 46.77723443 -6.90087088 49.38853746 -7 52 C-7.33 52 -7.66 52 -8 52 C-8.04973511 47.57089728 -8.08587704 43.14194603 -8.10986328 38.71264648 C-8.11987124 37.20838587 -8.1334818 35.70414447 -8.15087891 34.19995117 C-8.17535809 32.02778357 -8.18653523 29.85587496 -8.1953125 27.68359375 C-8.20578613 26.37962646 -8.21625977 25.07565918 -8.22705078 23.73217773 C-7.98704289 19.78701568 -7.22187181 16.73537628 -6 13 C-5.34 13 -4.68 13 -4 13 C-3.87882813 12.39671875 -3.75765625 11.7934375 -3.6328125 11.171875 C-3.38144531 9.97304687 -3.38144531 9.97304687 -3.125 8.75 C-2.96257812 7.96109375 -2.80015625 7.1721875 -2.6328125 6.359375 C-2.00849925 4.03168856 -1.15161458 2.10968048 0 0 Z " fill="#2F7FA7" transform="translate(149,185)"/>
<path d="M0 0 C0.99 0.66 1.98 1.32 3 2 C2.96040124 10.59293135 0.37699425 18.62983872 -4 26 C-6.19921875 26.90234375 -6.19921875 26.90234375 -8 27 C-6.93027262 23.77589143 -5.84807648 20.55700807 -4.74609375 17.34375 C-4.30984572 16.06251706 -3.87364841 14.78126685 -3.4375 13.5 C-3.21642578 12.86191406 -2.99535156 12.22382813 -2.76757812 11.56640625 C-1.4689181 7.72927784 -0.55113491 4.01275753 0 0 Z " fill="#C2C9D1" transform="translate(358,321)"/>
<path d="M0 0 C4.77159668 2.25416809 6.60376418 5.24567521 8.75 9.875 C9.05292969 10.48730469 9.35585938 11.09960938 9.66796875 11.73046875 C11.30053814 15.11895722 12.461696 18.2743697 13 22 C12.34 22 11.68 22 11 22 C10.67 22.66 10.34 23.32 10 24 C9.18395001 22.0848421 8.37229368 20.16781166 7.5625 18.25 C6.88380859 16.64898437 6.88380859 16.64898437 6.19140625 15.015625 C5.26020447 12.6586159 4.5215928 10.47007165 4 8 C3.34 8 2.68 8 2 8 C0.23537317 4.91190305 0 3.76687864 0 0 Z " fill="#B7BCC8" transform="translate(347,274)"/>
<path d="M0 0 C5.32027602 1.77342534 7.37703377 7.27985575 10 12 C14.100451 20.29882323 17.05615546 31.89629442 14.0078125 40.9453125 C13.67523438 41.62335938 13.34265625 42.30140625 13 43 C12.67 43 12.34 43 12 43 C11.99742187 41.73027344 11.99484375 40.46054688 11.9921875 39.15234375 C11.73889807 24.05511537 8.73742979 12.59217822 0 0 Z " fill="#6C717E" transform="translate(294,156)"/>
<path d="M0 0 C4.05244819 0.55325977 6.47701511 1.76484942 9.75 4.1875 C13.83775005 7.17210911 17.99484114 9.95635052 22.28515625 12.640625 C24 14 24 14 25 17 C20.41011944 15.67494519 16.92501147 13.83366677 13 11.125 C12.01 10.44695312 11.02 9.76890625 10 9.0703125 C9.01 8.38710938 8.02 7.70390625 7 7 C5.906875 6.31679688 4.81375 5.63359375 3.6875 4.9296875 C1 3 1 3 0 0 Z " fill="#C0F3F8" transform="translate(185,313)"/>
<path d="M0 0 C0.66 0 1.32 0 2 0 C3.21756149 3.80267833 3.16164306 7.58891348 3.16796875 11.5390625 C3.17129715 12.26112885 3.17462555 12.98319519 3.17805481 13.72714233 C3.18310416 15.24842697 3.18546375 16.76972262 3.18530273 18.29101562 C3.18749895 20.62388085 3.20570156 22.95628026 3.22460938 25.2890625 C3.22754172 26.76822755 3.22952758 28.24739484 3.23046875 29.7265625 C3.23765427 30.42552643 3.24483978 31.12449036 3.25224304 31.84463501 C3.22883884 36.77116116 3.22883884 36.77116116 1 39 C0.67 26.13 0.34 13.26 0 0 Z " fill="#242E3D" transform="translate(149,195)"/>
<path d="M0 0 C1.32 0.33 2.64 0.66 4 1 C0.12281347 7.13532814 -4.08293044 12.66105169 -9 18 C-10.32 17.34 -11.64 16.68 -13 16 C-12.21625 15.236875 -11.4325 14.47375 -10.625 13.6875 C-7.92742283 11.09108195 -7.92742283 11.09108195 -6 8 C-5.34 8 -4.68 8 -4 8 C-4 6.35 -4 4.7 -4 3 C-3.01 2.67 -2.02 2.34 -1 2 C-0.67 1.34 -0.34 0.68 0 0 Z " fill="#AEB4BE" transform="translate(348,349)"/>
<path d="M0 0 C3.21921852 0.93187904 4.65698986 1.37931498 6.3125 4.375 C7 7 7 7 7 11 C7.66 11 8.32 11 9 11 C9.66 12.65 10.32 14.3 11 16 C8.6875 15.8125 8.6875 15.8125 6 15 C3 10.96551724 3 10.96551724 3 8 C2.34 8 1.68 8 1 8 C0.67 5.36 0.34 2.72 0 0 Z " fill="#1E9CD9" transform="translate(179,312)"/>
<path d="M0 0 C0.33 0 0.66 0 1 0 C1.33 9.57 1.66 19.14 2 29 C10.91 29 19.82 29 29 29 C29 29.33 29 29.66 29 30 C28.29391602 30.02505615 27.58783203 30.0501123 26.86035156 30.07592773 C23.65672491 30.19207369 20.45337882 30.31471603 17.25 30.4375 C16.13882813 30.47681641 15.02765625 30.51613281 13.8828125 30.55664062 C12.81289062 30.59853516 11.74296875 30.64042969 10.640625 30.68359375 C9.65610352 30.72025146 8.67158203 30.75690918 7.65722656 30.79467773 C5.31076449 30.97598742 3.25281588 31.34331819 1 32 C0.09183202 28.13792926 -0.11643845 24.56851344 -0.09765625 20.60546875 C-0.09443359 19.40341797 -0.09121094 18.20136719 -0.08789062 16.96289062 C-0.07951172 15.71701172 -0.07113281 14.47113281 -0.0625 13.1875 C-0.05798828 11.92228516 -0.05347656 10.65707031 -0.04882812 9.35351562 C-0.03706251 6.2356289 -0.02062272 3.11783867 0 0 Z " fill="#226886" transform="translate(217,136)"/>
<path d="M0 0 C0.66 0 1.32 0 2 0 C3.175625 1.485 3.175625 1.485 4.375 3 C5.24125 3.99 6.1075 4.98 7 6 C8.32 6 9.64 6 11 6 C11 6.66 11 7.32 11 8 C11.66 8 12.32 8 13 8 C13 8.99 13 9.98 13 11 C13.61875 11.061875 14.2375 11.12375 14.875 11.1875 C15.57625 11.455625 16.2775 11.72375 17 12 C18.1328125 14.55078125 18.1328125 14.55078125 19 17 C17.41416752 16.23432134 15.83143506 15.46222035 14.25 14.6875 C13.36828125 14.25824219 12.4865625 13.82898438 11.578125 13.38671875 C9.14878356 12.08002752 7.04210368 10.85602414 5 9 C5 8.01 5 7.02 5 6 C4.34 6 3.68 6 3 6 C2.01 4.02 1.02 2.04 0 0 Z " fill="#2D8ECA" transform="translate(163,291)"/>
<path d="M0 0 C3.53586014 3.17320782 5.58578031 5.16743695 6 10 C7.65 10.33 9.3 10.66 11 11 C11.33 9.68 11.66 8.36 12 7 C12.33 7.99 12.66 8.98 13 10 C13.66 10.33 14.32 10.66 15 11 C14.34 12.32 13.68 13.64 13 15 C13.66 15.33 14.32 15.66 15 16 C14.01 16.33 13.02 16.66 12 17 C9.8125 15.6875 9.8125 15.6875 8 14 C8 13.34 8 12.68 8 12 C7.401875 11.95875 6.80375 11.9175 6.1875 11.875 C2.90249924 10.5609997 2.42680407 8.11302707 1 5 C0.34 4.67 -0.32 4.34 -1 4 C-0.67 2.68 -0.34 1.36 0 0 Z " fill="#1C6DA4" transform="translate(157,279)"/>
<path d="M0 0 C1.9375 0.625 1.9375 0.625 4 2 C4.75 5.125 4.75 5.125 5 8 C5.66 8 6.32 8 7 8 C7.33 10.97 7.66 13.94 8 17 C7.34 17 6.68 17 6 17 C6 16.34 6 15.68 6 15 C4.68 14.67 3.36 14.34 2 14 C-0.125 7.375 -0.125 7.375 1 4 C0.61067144 1.85744207 0.61067144 1.85744207 0 0 Z " fill="#5A657C" transform="translate(141,297)"/>
<path d="M0 0 C0.33 0 0.66 0 1 0 C1.21914062 0.79921875 1.43828125 1.5984375 1.6640625 2.421875 C3.73629884 9.59888866 6.30296316 16.04885442 9.828125 22.63671875 C11 25 11 25 11 27 C7.43944558 25.81314853 5.78107449 24.55479224 4.09277344 21.1940918 C3.29713711 19.0299292 2.51181074 16.86383795 1.75 14.6875 C1.46898437 13.94048828 1.18796875 13.19347656 0.8984375 12.42382812 C-0.70923117 7.89131671 -1.30946569 4.78868559 0 0 Z " fill="#1B3B65" transform="translate(151,257)"/>
<path d="M0 0 C0.33 0 0.66 0 1 0 C1 3.96 1 7.92 1 12 C-9.71428571 5.85714286 -9.71428571 5.85714286 -14 1 C-10.40608886 2.33488128 -7.24509304 3.96022723 -4 6 C-4 5.01 -4 4.02 -4 3 C-2.68 3 -1.36 3 0 3 C0 2.01 0 1.02 0 0 Z " fill="#2B8EC0" transform="translate(203,312)"/>
<path d="M0 0 C7.82200925 1.00929152 14.29773587 4.73637157 20 10 C18.3046875 10.671875 18.3046875 10.671875 16 11 C13.6328125 9.890625 13.6328125 9.890625 11.125 8.25 C7.48167618 5.93250112 3.89923157 3.84700443 0 2 C0 1.34 0 0.68 0 0 Z " fill="#2B3042" transform="translate(277,270)"/>
<path d="M0 0 C0.99 0 1.98 0 3 0 C2.68381875 6.00744377 -0.13835719 11.46342405 -4 16 C-6.703125 16.79296875 -6.703125 16.79296875 -9 17 C-8.34 15.68 -7.68 14.36 -7 13 C-6.34 13 -5.68 13 -5 13 C-5 12.01 -5 11.02 -5 10 C-4.34 10 -3.68 10 -3 10 C-3 8.68 -3 7.36 -3 6 C-2.34 6 -1.68 6 -1 6 C-0.67 4.02 -0.34 2.04 0 0 Z " fill="#8D98A7" transform="translate(341,206)"/>
<path d="M0 0 C0.66 0 1.32 0 2 0 C1.85636473 1.37523135 1.70996483 2.75017402 1.5625 4.125 C1.48128906 4.89070312 1.40007812 5.65640625 1.31640625 6.4453125 C1.09468783 8.23548345 0.81765805 10.019263 0.5 11.79492188 C0.0253897 14.83724809 -0.20069163 17.7612347 -0.31640625 20.8359375 C-0.35830078 21.89941406 -0.40019531 22.96289062 -0.44335938 24.05859375 C-0.48267578 25.15300781 -0.52199219 26.24742187 -0.5625 27.375 C-0.60568359 28.49261719 -0.64886719 29.61023438 -0.69335938 30.76171875 C-0.79897411 33.50770199 -0.9010797 36.25376881 -1 39 C-1.33 39 -1.66 39 -2 39 C-2.04992909 34.89237237 -2.08596646 30.78486552 -2.10986328 26.67700195 C-2.1198393 25.28341591 -2.13342501 23.88985034 -2.15087891 22.49633789 C-2.24549371 14.7407064 -2.11409413 7.51585432 0 0 Z " fill="#AAE4F6" transform="translate(130,207)"/>
<path d="M0 0 C6.05140408 -0.41733821 9.17158669 -0.10415132 14 4 C14 4.66 14 5.32 14 6 C15.32 6.66 16.64 7.32 18 8 C10 8.30769231 10 8.30769231 7 6 C6.25 3.875 6.25 3.875 6 2 C5.01 2.33 4.02 2.66 3 3 C2.01 2.67 1.02 2.34 0 2 C0 1.34 0 0.68 0 0 Z " fill="#2BABDB" transform="translate(195,326)"/>
<path d="M0 0 C0.33 0 0.66 0 1 0 C2.37039812 7.83510227 2.2719265 14.074703 -2 21 C-4.75 23.125 -4.75 23.125 -7 24 C-6.731875 23.360625 -6.46375 22.72125 -6.1875 22.0625 C-3.37319619 14.80455859 -1.36117638 7.67062922 0 0 Z " fill="#4C5365" transform="translate(310,303)"/>
<path d="M0 0 C0.99 0.33 1.98 0.66 3 1 C1.515 4.465 1.515 4.465 0 8 C0.66 8.33 1.32 8.66 2 9 C1.814375 9.928125 1.62875 10.85625 1.4375 11.8125 C0.75876119 15.01343771 0.75876119 15.01343771 2 18 C1.0625 21.1875 1.0625 21.1875 0 24 C-2 22 -2 22 -2.265625 19.78515625 C-2.22665417 12.99448916 -1.43742165 6.63524099 0 0 Z " fill="#31ABD9" transform="translate(131,211)"/>
<path d="M0 0 C0 0.99 0 1.98 0 3 C-0.99 3.495 -0.99 3.495 -2 4 C-3.13350534 6.01669827 -3.13350534 6.01669827 -4 8 C-4.33 7.34 -4.66 6.68 -5 6 C-5.7425 6.515625 -6.485 7.03125 -7.25 7.5625 C-10 9 -10 9 -12.3125 8.6875 C-12.869375 8.460625 -13.42625 8.23375 -14 8 C-14 7.34 -14 6.68 -14 6 C-14.66 5.67 -15.32 5.34 -16 5 C-15.34773438 4.80664062 -14.69546875 4.61328125 -14.0234375 4.4140625 C-9.3228602 3.01359552 -4.64159109 1.58791274 0 0 Z " fill="#9DACB9" transform="translate(289,220)"/>
<path d="M0 0 C3.875 1.75 3.875 1.75 5 4 C4.34 5.32 3.68 6.64 3 8 C-1.62 7.34 -6.24 6.68 -11 6 C-11 5.67 -11 5.34 -11 5 C-7.12315913 3.80712589 -4.08378077 3 0 3 C0 2.01 0 1.02 0 0 Z " fill="#2483B0" transform="translate(278,161)"/>
<path d="M0 0 C3 1 3 1 4.5703125 4.09765625 C5.10028766 5.41460458 5.61804507 6.73651988 6.125 8.0625 C6.38925781 8.70638672 6.65351563 9.35027344 6.92578125 10.01367188 C8.76020175 14.68352914 9.54341932 19.00545278 10 24 C7.36437499 22.6821875 7.29667275 21.62229509 6.30859375 18.88671875 C6.00373047 18.05076172 5.69886719 17.21480469 5.38476562 16.35351562 C5.07216797 15.47373047 4.75957031 14.59394531 4.4375 13.6875 C4.12103516 12.81931641 3.80457031 11.95113281 3.47851562 11.05664062 C2.15456214 7.39398373 0.8894038 3.79547273 0 0 Z " fill="#7F8894" transform="translate(367,198)"/>
<path d="M0 0 C2.60574338 1.12145918 5.20959056 2.24699797 7.8125 3.375 C8.55048828 3.69210937 9.28847656 4.00921875 10.04882812 4.3359375 C10.76103516 4.6453125 11.47324219 4.9546875 12.20703125 5.2734375 C12.8616333 5.55622559 13.51623535 5.83901367 14.19067383 6.13037109 C16 7 16 7 19 9 C10.54929577 9.14084507 10.54929577 9.14084507 7 8 C6.2575 7.814375 5.515 7.62875 4.75 7.4375 C3.88375 7.2209375 3.88375 7.2209375 3 7 C3 6.34 3 5.68 3 5 C2.01 4.67 1.02 4.34 0 4 C0.66 3.67 1.32 3.34 2 3 C1.34 2.67 0.68 2.34 0 2 C0 1.34 0 0.68 0 0 Z " fill="#36A3CE" transform="translate(209,330)"/>
<path d="M0 0 C4.37653129 0.47620289 6.06538005 1.66899889 8.8125 5.0625 C9.41707031 5.79597656 10.02164062 6.52945312 10.64453125 7.28515625 C11.09183594 7.85105469 11.53914063 8.41695313 12 9 C11.01 9.495 11.01 9.495 10 10 C9.67 10.66 9.34 11.32 9 12 C7.49405319 10.38050958 5.99539332 8.75424026 4.5 7.125 C3.6646875 6.22007812 2.829375 5.31515625 1.96875 4.3828125 C0 2 0 2 0 0 Z " fill="#C9D1D5" transform="translate(336,263)"/>
<path d="M0 0 C1.051875 0.474375 2.10375 0.94875 3.1875 1.4375 C6.10175851 2.69323741 8.84746914 3.52234381 12 4 C11.67 4.99 11.34 5.98 11 7 C11.66 7.33 12.32 7.66 13 8 C11.35 8.66 9.7 9.32 8 10 C6.33333333 8.33333333 4.66666667 6.66666667 3 5 C2.401875 4.443125 1.80375 3.88625 1.1875 3.3125 C0 2 0 2 0 0 Z " fill="#3AB1E3" transform="translate(176,305)"/>
<path d="M0 0 C0.99 0 1.98 0 3 0 C3.50604924 2.39469729 4.00499517 4.79051717 4.5 7.1875 C4.64308594 7.86103516 4.78617188 8.53457031 4.93359375 9.22851562 C5.68069842 12.87509793 6.17352282 16.27648957 6 20 C3.09601887 16.68929883 2.23136657 13.71095881 1.3125 9.4375 C1.06113281 8.30183594 0.80976563 7.16617187 0.55078125 5.99609375 C0 3 0 3 0 0 Z " fill="#92B0C4" transform="translate(129,263)"/>
<path d="M0 0 C4.875 1.75 4.875 1.75 6 4 C5 7 5 7 2.79296875 8.171875 C-0.17051884 9.05055943 -2.60243635 9.26683527 -5.6875 9.25 C-7.11642578 9.25773438 -7.11642578 9.25773438 -8.57421875 9.265625 C-11 9 -11 9 -13 7 C-9.04 7 -5.08 7 -1 7 C0.12126781 3.20211302 0.12126781 3.20211302 0 0 Z " fill="#2A8EC0" transform="translate(273,157)"/>
<path d="M0 0 C2.5 2.3125 2.5 2.3125 5 5 C5 5.99 5 6.98 5 8 C5.66 8 6.32 8 7 8 C8.625 10 8.625 10 10 12 C9.67 12.66 9.34 13.32 9 14 C8.566875 13.505 8.13375 13.01 7.6875 12.5 C6.00259517 10.66781808 6.00259517 10.66781808 3 11 C0 4.5 0 4.5 0 0 Z " fill="#28496D" transform="translate(154,320)"/>
<path d="M0 0 C0.33 0 0.66 0 1 0 C1.2295747 5.39500547 1.03581546 10.92679142 -1 16 C-1.99 16.33 -2.98 16.66 -4 17 C-4.53293835 15.25364835 -5.05090663 13.50272348 -5.5625 11.75 C-5.85253906 10.77546875 -6.14257812 9.8009375 -6.44140625 8.796875 C-7 6 -7 6 -6 2 C-5.01 5.63 -4.02 9.26 -3 13 C-2.01 8.71 -1.02 4.42 0 0 Z " fill="#151622" transform="translate(380,280)"/>
<path d="M0 0 C-3.32148288 3.74192376 -7.18030266 4.98826188 -12 6 C-14.5099901 5.95885262 -16.53738722 5.57635618 -19 5 C-19 4.67 -19 4.34 -19 4 C-18.15695312 3.79503906 -17.31390625 3.59007812 -16.4453125 3.37890625 C-15.34960938 3.10949219 -14.25390625 2.84007812 -13.125 2.5625 C-12.03445313 2.29566406 -10.94390625 2.02882813 -9.8203125 1.75390625 C-2.96698113 -0.07807845 -2.96698113 -0.07807845 0 0 Z " fill="#91A0A9" transform="translate(294,338)"/>
<path d="M0 0 C0.33 0.66 0.66 1.32 1 2 C1.99 2.33 2.98 2.66 4 3 C5.203125 5.3984375 5.203125 5.3984375 6.25 8.375 C6.60578125 9.35210937 6.9615625 10.32921875 7.328125 11.3359375 C8 14 8 14 7 17 C6.7525 16.030625 6.505 15.06125 6.25 14.0625 C5.8375 13.051875 5.425 12.04125 5 11 C3.68 10.67 2.36 10.34 1 10 C0.67 6.7 0.34 3.4 0 0 Z " fill="#16669F" transform="translate(148,262)"/>
<path d="M0 0 C1.98 0 3.96 0 6 0 C6.66 0.66 7.32 1.32 8 2 C4.98968256 2.93423645 4.13349732 3.04449911 1 2 C1 9.92 1 17.84 1 26 C0.67 26 0.34 26 0 26 C0 17.42 0 8.84 0 0 Z " fill="#3AC3CD" transform="translate(218,131)"/>
<path d="M0 0 C0.99 0 1.98 0 3 0 C3.33 0.66 3.66 1.32 4 2 C6.31 2 8.62 2 11 2 C10.34 3.32 9.68 4.64 9 6 C3.52173913 6.36521739 3.52173913 6.36521739 1.125 4.6875 C0 3 0 3 0 0 Z " fill="#2A8CC0" transform="translate(209,335)"/>
<path d="M0 0 C0.309375 0.639375 0.61875 1.27875 0.9375 1.9375 C1.8345163 3.93610821 1.8345163 3.93610821 3 5 C3.3753535 7.07617404 3.7003137 9.16156111 4 11.25 C4.57098416 15.19335938 5.17904553 19.10046626 6 23 C5.34 23 4.68 23 4 23 C2.06082111 20.09123167 1.72023086 19.27245932 1.4375 16 C1.3653125 15.21753906 1.293125 14.43507812 1.21875 13.62890625 C1.1465625 12.76136719 1.074375 11.89382812 1 11 C0.81273926 8.97914448 0.62523987 6.95831106 0.4375 4.9375 C0.29075936 3.29174731 0.14459681 1.64594243 0 0 Z " fill="#2174A8" transform="translate(142,239)"/>
<path d="M0 0 C2 0 2 0 3.5 1.4375 C3.995 1.953125 4.49 2.46875 5 3 C5.66 3.33 6.32 3.66 7 4 C7.33 2.68 7.66 1.36 8 0 C8.33 3.3 8.66 6.6 9 10 C5 9 5 9 3.515625 6.93359375 C3.09796875 6.10988281 2.6803125 5.28617188 2.25 4.4375 C1.82203125 3.61121094 1.3940625 2.78492188 0.953125 1.93359375 C0.63859375 1.29550781 0.3240625 0.65742188 0 0 Z " fill="#091528" transform="translate(293,187)"/>
<path d="M0 0 C6.08233706 0.67581523 12.01314152 1.73638028 18 3 C18 3.33 18 3.66 18 4 C11.73 3.67 5.46 3.34 -1 3 C-0.67 2.01 -0.34 1.02 0 0 Z " fill="#0B0E1E" transform="translate(244,387)"/>
<path d="M0 0 C5.02692063 0.45699278 8.14896261 2.99241748 12 6 C11.01 7.485 11.01 7.485 10 9 C8.51444617 8.07265428 7.03672494 7.13275187 5.5625 6.1875 C4.73878906 5.66542969 3.91507813 5.14335937 3.06640625 4.60546875 C1 3 1 3 0 0 Z " fill="#64E1F9" transform="translate(185,313)"/>
<path d="M0 0 C3.9945793 2.05127045 6.10267152 3.88912162 8 8 C7.67 8.66 7.34 9.32 7 10 C6.01 10 5.02 10 4 10 C4 9.34 4 8.68 4 8 C3.34 8 2.68 8 2 8 C0.23537317 4.91190305 0 3.76687864 0 0 Z " fill="#9AA1A7" transform="translate(347,274)"/>
<path d="M0 0 C1.485 0.99 1.485 0.99 3 2 C3 2.66 3 3.32 3 4 C3.66 4 4.32 4 5 4 C6.5625 6.8125 6.5625 6.8125 8 10 C7.67 10.99 7.34 11.98 7 13 C6.34 11.68 5.68 10.36 5 9 C4.34 9 3.68 9 3 9 C0.56839395 5.63316085 0 4.26649636 0 0 Z " fill="#272C3C" transform="translate(169,342)"/>
<path d="M0 0 C7.26 0 14.52 0 22 0 C22 0.66 22 1.32 22 2 C17.375 4.125 17.375 4.125 14 3 C14.66 2.67 15.32 2.34 16 2 C10.72 1.67 5.44 1.34 0 1 C0 0.67 0 0.34 0 0 Z " fill="#8B9196" transform="translate(253,226)"/>
<path d="M0 0 C2.31 0 4.62 0 7 0 C7 0.66 7 1.32 7 2 C8.65 2.33 10.3 2.66 12 3 C10.68 3.99 9.36 4.98 8 6 C7.4225 5.67 6.845 5.34 6.25 5 C3.80116138 3.72924102 3.80116138 3.72924102 0 4 C0 2.68 0 1.36 0 0 Z " fill="#41F9FA" transform="translate(219,133)"/>
<path d="M0 0 C2.83014485 1.9725252 3.70813476 4.32245996 5.0625 7.4375 C0.74631834 7.4375 -0.86539659 5.30479652 -3.9375 2.4375 C-3.9375 1.7775 -3.9375 1.1175 -3.9375 0.4375 C-1.9375 -0.5625 -1.9375 -0.5625 0 0 Z " fill="#16547A" transform="translate(290.9375,173.5625)"/>
<path d="M0 0 C1.32 0.66 2.64 1.32 4 2 C-2.24273068 4.4793824 -7.28299653 5.31985731 -14 5 C-11.12581279 3.4280761 -8.52162394 2.56871611 -5.3125 1.9375 C-2.37233881 1.52286728 -2.37233881 1.52286728 0 0 Z " fill="#3A3E4D" transform="translate(308,383)"/>
<path d="M0 0 C2.45840605 -0.02691685 4.91651882 -0.04679802 7.375 -0.0625 C8.07367188 -0.07087891 8.77234375 -0.07925781 9.4921875 -0.08789062 C14.7734375 -0.11328125 14.7734375 -0.11328125 17 1 C17 1.66 17 2.32 17 3 C11.08739655 3.25706972 5.76081841 2.2982126 0 1 C0 0.67 0 0.34 0 0 Z " fill="#D3DBE1" transform="translate(294,249)"/>
<path d="M0 0 C1.5625 1.0625 1.5625 1.0625 3 3 C2.6875 6.6875 2.6875 6.6875 2 10 C1.67 9.34 1.34 8.68 1 8 C0.34 8 -0.32 8 -1 8 C-1.33 8.66 -1.66 9.32 -2 10 C-3.39195915 5.82412255 -1.82323219 3.86525224 0 0 Z " fill="#80B5CA" transform="translate(131,199)"/>
<path d="M0 0 C3.84938867 3.59276276 5.91873633 5.88714467 6.125 11.25 C6.08375 12.1575 6.0425 13.065 6 14 C3.22137141 10.52671426 1.01536527 6.9587532 -1 3 C-0.67 2.01 -0.34 1.02 0 0 Z " fill="#5A96B2" transform="translate(292,170)"/>
<path d="M0 0 C3.7910119 1.44950455 7.3874638 3.15172566 11 5 C8 7 8 7 4.9375 6.4375 C2 5 2 5 0.625 2.375 C0.41875 1.59125 0.2125 0.8075 0 0 Z " fill="#AAC0C4" transform="translate(208,326)"/>
<path d="M0 0 C0.33 0.99 0.66 1.98 1 3 C1.66 3.33 2.32 3.66 3 4 C2.34 5.32 1.68 6.64 1 8 C1.66 8.33 2.32 8.66 3 9 C2.01 9.33 1.02 9.66 0 10 C-0.99 9.34 -1.98 8.68 -3 8 C-3 6.68 -3 5.36 -3 4 C-2.34 4 -1.68 4 -1 4 C-0.67 2.68 -0.34 1.36 0 0 Z " fill="#2B6194" transform="translate(169,286)"/>
<path d="M0 0 C3.93673644 1.31224548 6.22719294 2.91910327 9 6 C8.34 6 7.68 6 7 6 C6.67 6.66 6.34 7.32 6 8 C3 6.25 3 6.25 0 4 C0 2.68 0 1.36 0 0 Z " fill="#B4BCC0" transform="translate(329,257)"/>
<path d="M0 0 C1.65 1.65 3.3 3.3 5 5 C2.75 6.1875 2.75 6.1875 0 7 C-2.3125 5.625 -2.3125 5.625 -4 4 C-2.68 2.68 -1.36 1.36 0 0 Z " fill="#1F6891" transform="translate(286,168)"/>
<path d="M0 0 C6.625 0.75 6.625 0.75 10 3 C10 3.99 10 4.98 10 6 C6.33118845 5.29445932 3.29549466 3.72264494 0 2 C0 1.34 0 0.68 0 0 Z " fill="#A5DEE8" transform="translate(268,152)"/>
<path d="M0 0 C1.60717771 2.41076656 2.61542515 4.28099245 3.625 6.9375 C3.88539063 7.60652344 4.14578125 8.27554687 4.4140625 8.96484375 C5 11 5 11 5 15 C4.34 15 3.68 15 3 15 C2.30359327 12.87790224 1.61811643 10.75221473 0.9375 8.625 C0.55464844 7.44164062 0.17179688 6.25828125 -0.22265625 5.0390625 C-1 2 -1 2 0 0 Z " fill="#7790A9" transform="translate(135,282)"/>
<path d="M0 0 C1.98 0.66 3.96 1.32 6 2 C4.68 2.33 3.36 2.66 2 3 C2 3.66 2 4.32 2 5 C2.99 5.33 3.98 5.66 5 6 C3.02 6.99 3.02 6.99 1 8 C0.67 7.34 0.34 6.68 0 6 C-0.99 6.33 -1.98 6.66 -3 7 C-2.690625 6.401875 -2.38125 5.80375 -2.0625 5.1875 C-0.89790296 2.91043228 -0.89790296 2.91043228 0 0 Z " fill="#55B5CE" transform="translate(266,149)"/>
<path d="M0 0 C0.66 0.66 1.32 1.32 2 2 C0.68 4.31 -0.64 6.62 -2 9 C-2.99 9 -3.98 9 -5 9 C-3.90931332 5.22454612 -3.0916909 2.52956528 0 0 Z " fill="#C9CED5" transform="translate(355,339)"/>
<path d="M0 0 C0.33 0 0.66 0 1 0 C1.33 4.29 1.66 8.58 2 13 C1.01 13.33 0.02 13.66 -1 14 C-1.02694851 12.04174127 -1.04637218 10.08337774 -1.0625 8.125 C-1.07410156 7.03445313 -1.08570313 5.94390625 -1.09765625 4.8203125 C-1 2 -1 2 0 0 Z " fill="#EFF4F8" transform="translate(360,310)"/>
<path d="M0 0 C0.33 0 0.66 0 1 0 C1 6.93 1 13.86 1 21 C0.01 21.33 -0.98 21.66 -2 22 C-1.84660156 21.18273437 -1.69320313 20.36546875 -1.53515625 19.5234375 C-0.9322218 15.55375228 -0.65842036 11.63053967 -0.4375 7.625 C-0.39431641 6.88894531 -0.35113281 6.15289062 -0.30664062 5.39453125 C-0.20156201 3.59651932 -0.10037907 1.79828042 0 0 Z " fill="#1F2437" transform="translate(305,179)"/>
<path d="M0 0 C5.445 1.485 5.445 1.485 11 3 C7.0881379 3.97796553 4.00757582 4.2226431 0 4 C-0.66 3.34 -1.32 2.68 -2 2 C-1.34 1.34 -0.68 0.68 0 0 Z " fill="#3A85AD" transform="translate(228,339)"/>
<path d="M0 0 C0.99 0.33 1.98 0.66 3 1 C2.01 3.31 1.02 5.62 0 8 C-0.99 8 -1.98 8 -3 8 C-2.74438677 5.6568787 -2.40729228 3.32156597 -2 1 C-1.34 0.67 -0.68 0.34 0 0 Z " fill="#ADB4C4" transform="translate(357,332)"/>
<path d="M0 0 C1.9375 0.5625 1.9375 0.5625 4 2 C4.75 5.625 4.75 5.625 5 9 C3.68 8.67 2.36 8.34 1 8 C0.67 5.36 0.34 2.72 0 0 Z " fill="#23AFE5" transform="translate(185,315)"/>
<path d="M0 0 C1.9375 0.625 1.9375 0.625 4 2 C4.75 5.125 4.75 5.125 5 8 C5.66 8 6.32 8 7 8 C7.33 10.31 7.66 12.62 8 15 C5.84821844 12.23612808 4.01629579 9.43466931 2.3125 6.375 C1.87550781 5.59898437 1.43851563 4.82296875 0.98828125 4.0234375 C0 2 0 2 0 0 Z " fill="#1E5589" transform="translate(141,297)"/>
<path d="M0 0 C1.32 0.33 2.64 0.66 4 1 C4 1.66 4 2.32 4 3 C5.32 2.67 6.64 2.34 8 2 C8.93423645 5.01031744 9.04449911 5.86650268 8 9 C6.66368764 7.6905332 5.33102075 6.37734515 4 5.0625 C3.2575 4.33160156 2.515 3.60070312 1.75 2.84765625 C0 1 0 1 0 0 Z " fill="#122342" transform="translate(285,178)"/>
<path d="M0 0 C2 1.375 2 1.375 4 3 C4 3.66 4 4.32 4 5 C4.66 5 5.32 5 6 5 C8.1875 7.3125 8.1875 7.3125 10 10 C9.67 10.99 9.34 11.98 9 13 C7.4941255 11.21326795 5.9954515 9.42046492 4.5 7.625 C3.6646875 6.62726563 2.829375 5.62953125 1.96875 4.6015625 C0 2 0 2 0 0 Z " fill="#373A4B" transform="translate(159,332)"/>
<path d="M0 0 C6.75 -0.125 6.75 -0.125 9 1 C9 2.32 9 3.64 9 5 C5.22454612 3.90931332 2.52956528 3.0916909 0 0 Z " fill="#C7D0D3" transform="translate(320,255)"/>
<path d="M0 0 C0.33 0 0.66 0 1 0 C0.67 3.96 0.34 7.92 0 12 C-0.99 12.33 -1.98 12.66 -3 13 C-2.52060632 8.28596212 -2.03165952 4.33420699 0 0 Z " fill="#7D8B95" transform="translate(127,208)"/>
<path d="M0 0 C-2.33214148 1.20628008 -4.49642139 2.1654738 -7 3 C-5.68 3.66 -4.36 4.32 -3 5 C-4.75 5.75 -4.75 5.75 -7 6 C-9.25 4.0625 -9.25 4.0625 -11 2 C-7.17010894 0.19769832 -4.21878192 -0.19622241 0 0 Z " fill="#5A6069" transform="translate(225,115)"/>
<path d="M0 0 C4.42679007 1.47559669 4.91432696 3.90057368 7 8 C7 8.66 7 9.32 7 10 C3.91505409 8.9716847 2.91731521 8.52737004 1 6 C0.3125 2.8125 0.3125 2.8125 0 0 Z " fill="#143D66" transform="translate(155,274)"/>
<path d="M0 0 C1.65 0 3.3 0 5 0 C3.60667426 3.36720387 2.0210714 4.9859524 -1 7 C-0.67 4.69 -0.34 2.38 0 0 Z " fill="#5E656D" transform="translate(330,223)"/>
<path d="M0 0 C0.8353125 0.37125 0.8353125 0.37125 1.6875 0.75 C0.0375 2.4 -1.6125 4.05 -3.3125 5.75 C-4.6325 5.09 -5.9525 4.43 -7.3125 3.75 C-2.88173077 -0.31153846 -2.88173077 -0.31153846 0 0 Z " fill="#B7C9D0" transform="translate(342.3125,361.25)"/>
<path d="M0 0 C3 2 3 2 3.73046875 4.6015625 C3.88128906 5.59929687 4.03210938 6.59703125 4.1875 7.625 C4.34605469 8.62789062 4.50460937 9.63078125 4.66796875 10.6640625 C4.77753906 11.43492187 4.88710938 12.20578125 5 13 C3 12 3 12 2.1484375 10.0390625 C1.89320313 9.24242187 1.63796875 8.44578125 1.375 7.625 C1.11460937 6.83351562 0.85421875 6.04203125 0.5859375 5.2265625 C0 3 0 3 0 0 Z " fill="#919FAD" transform="translate(372,209)"/>
<path d="M0 0 C4.23429756 1.31061591 8.07407404 2.94356259 12 5 C11.01 5.66 10.02 6.32 9 7 C9 6.34 9 5.68 9 5 C8.01 5.33 7.02 5.66 6 6 C5.34 5.67 4.68 5.34 4 5 C4 4.34 4 3.68 4 3 C3.01 3 2.02 3 1 3 C0.67 2.01 0.34 1.02 0 0 Z " fill="#67AEB8" transform="translate(254,143)"/>
<path d="M0 0 C1.98 0 3.96 0 6 0 C6.33 0.99 6.66 1.98 7 3 C7.99 3 8.98 3 10 3 C9.67 3.66 9.34 4.32 9 5 C6.69 4.67 4.38 4.34 2 4 C2 3.34 2 2.68 2 2 C1.34 2 0.68 2 0 2 C0 1.34 0 0.68 0 0 Z " fill="#67EFF9" transform="translate(248,143)"/>
<path d="M0 0 C1.6266848 0.28211877 3.25132896 0.57602375 4.875 0.875 C5.77992188 1.03742188 6.68484375 1.19984375 7.6171875 1.3671875 C10 2 10 2 12 4 C8.52128379 5.15957207 7.65780355 4.77456651 4.3125 3.5625 C3.50425781 3.27503906 2.69601563 2.98757812 1.86328125 2.69140625 C1.24839844 2.46324219 0.63351563 2.23507813 0 2 C0 1.34 0 0.68 0 0 Z " fill="#2CA6B1" transform="translate(226,133)"/>
<path d="M0 0 C2.97 0 5.94 0 9 0 C9 1.32 9 2.64 9 4 C6.03 3.01 3.06 2.02 0 1 C0 0.67 0 0.34 0 0 Z " fill="#C6DFE4" transform="translate(229,338)"/>
<path d="M0 0 C2.10633718 1.70828921 2.93801608 2.52148416 3.29296875 5.26171875 C3.25816406 6.06222656 3.22335938 6.86273438 3.1875 7.6875 C3.16042969 8.49574219 3.13335937 9.30398438 3.10546875 10.13671875 C3.07066406 10.75160156 3.03585938 11.36648438 3 12 C0.50494038 9.50494038 0.64051624 8.32671112 0.375 4.875 C0.30023438 3.96492188 0.22546875 3.05484375 0.1484375 2.1171875 C0.09945312 1.41851562 0.05046875 0.71984375 0 0 Z " fill="#216294" transform="translate(133,268)"/>
<path d="M0 0 C-0.66 1.32 -1.32 2.64 -2 4 C-6 4 -6 4 -8 3 C-4.93882432 0.37613513 -4.26826873 0 0 0 Z " fill="#6D7C8C" transform="translate(295,217)"/>
<path d="M0 0 C2.31 0.33 4.62 0.66 7 1 C6.67 1.66 6.34 2.32 6 3 C3.35139573 3.59355614 0.70802678 3.74209269 -2 4 C-1.34 2.68 -0.68 1.36 0 0 Z " fill="#2F8CBD" transform="translate(221,338)"/>
<path d="M0 0 C0.66 0.66 1.32 1.32 2 2 C1.9375 4.4375 1.9375 4.4375 1 7 C-1.5625 8.8125 -1.5625 8.8125 -4 10 C-2.66666667 6.66666667 -1.33333333 3.33333333 0 0 Z " fill="#3C4353" transform="translate(307,317)"/>
<path d="M0 0 C0.33 0 0.66 0 1 0 C1 3.63 1 7.26 1 11 C-2 8 -2 8 -2.3125 5.5 C-2 3 -2 3 0 0 Z " fill="#2CC1D9" transform="translate(149,174)"/>
<path d="M0 0 C5.4611399 0.35233161 5.4611399 0.35233161 8 1 C9.5 3.0625 9.5 3.0625 10 5 C9.01 5 8.02 5 7 5 C7 4.34 7 3.68 7 3 C4.69 2.34 2.38 1.68 0 1 C0 0.67 0 0.34 0 0 Z " fill="#142F51" transform="translate(282,176)"/>
<path d="M0 0 C2.78388975 1.70625501 3.85384206 2.47626739 4.75 5.6875 C4.8325 6.450625 4.915 7.21375 5 8 C1.83884224 6.63016497 1.0072908 6.0109362 -1 3 C-0.67 2.01 -0.34 1.02 0 0 Z " fill="#8DCADE" transform="translate(288,165)"/>
<path d="M0 0 C2.475 0.99 2.475 0.99 5 2 C5 2.99 5 3.98 5 5 C3.68 5.33 2.36 5.66 1 6 C0 1.125 0 1.125 0 0 Z " fill="#2F98C2" transform="translate(273,157)"/>
<path d="M0 0 C-2.1413437 2.46254526 -3.69870394 3.69050349 -7 4 C-7.99 3.34 -8.98 2.68 -10 2 C-6.49223216 0.39644899 -3.85645121 -0.22036864 0 0 Z " fill="#7E8C9C" transform="translate(294,338)"/>
<path d="M0 0 C0.66 0 1.32 0 2 0 C3.4783226 2.95664519 3.06032783 5.74229737 3 9 C0.9375 7.3125 0.9375 7.3125 -1 5 C-0.75 2.25 -0.75 2.25 0 0 Z " fill="#B4B6BF" transform="translate(358,296)"/>
<path d="M0 0 C1.65 0 3.3 0 5 0 C5 0.66 5 1.32 5 2 C5.66 2 6.32 2 7 2 C6.67 2.99 6.34 3.98 6 5 C4 4 2 3 0 2 C0 1.34 0 0.68 0 0 Z " fill="#2C78B3" transform="translate(169,297)"/>
<path d="M0 0 C0.33 0.66 0.66 1.32 1 2 C1.66 2.33 2.32 2.66 3 3 C2.01 4.32 1.02 5.64 0 7 C-1.32 6.67 -2.64 6.34 -4 6 C-3.34 5.01 -2.68 4.02 -2 3 C-1.34 3 -0.68 3 0 3 C0 2.01 0 1.02 0 0 Z " fill="#7B8390" transform="translate(336,216)"/>
<path d="M0 0 C0.99 0.33 1.98 0.66 3 1 C2.67 1.99 2.34 2.98 2 4 C1.01 4.33 0.02 4.66 -1 5 C-1.33 5.66 -1.66 6.32 -2 7 C-2.99 6.67 -3.98 6.34 -5 6 C-3.35 4.02 -1.7 2.04 0 0 Z " fill="#525B6E" transform="translate(298,210)"/>
<path d="M0 0 C0.66 0.33 1.32 0.66 2 1 C2 1.99 2 2.98 2 4 C-1.465 5.485 -1.465 5.485 -5 7 C-3.70700306 4.11562221 -2.34058637 2.12780579 0 0 Z " fill="#477CA8" transform="translate(150,169)"/>
<path d="M0 0 C1.5 1.3125 1.5 1.3125 3 3 C3 3.99 3 4.98 3 6 C3.66 6.33 4.32 6.66 5 7 C4.34 7 3.68 7 3 7 C2.67 7.66 2.34 8.32 2 9 C0.50178941 5.62902617 0 3.79557881 0 0 Z " fill="#ECF0F6" transform="translate(355,289)"/>
<path d="M0 0 C0.99 0.495 0.99 0.495 2 1 C2.4140625 3.06640625 2.4140625 3.06640625 2.625 5.5625 C2.69976562 6.38878906 2.77453125 7.21507812 2.8515625 8.06640625 C2.92503906 9.02353516 2.92503906 9.02353516 3 10 C2.34 9.67 1.68 9.34 1 9 C0.5859375 6.93359375 0.5859375 6.93359375 0.375 4.4375 C0.30023438 3.61121094 0.22546875 2.78492188 0.1484375 1.93359375 C0.09945312 1.29550781 0.05046875 0.65742188 0 0 Z " fill="#AAC7D6" transform="translate(128,254)"/>
<path d="M0 0 C0 0.66 0 1.32 0 2 C-2.31 2.66 -4.62 3.32 -7 4 C-7 3.01 -7 2.02 -7 1 C-4.53721199 -0.231394 -2.7204945 -0.07159196 0 0 Z " fill="#858C95" transform="translate(316,237)"/>
<path d="M0 0 C0.99 0 1.98 0 3 0 C2.34 3.3 1.68 6.6 1 10 C0.67 10 0.34 10 0 10 C0 6.7 0 3.4 0 0 Z " fill="#8A92A4" transform="translate(345,192)"/>
<path d="M0 0 C2 4 2 4 1.3125 6.1875 C0 8 0 8 -3 9 C-2.01 6.03 -1.02 3.06 0 0 Z " fill="#5B91A4" transform="translate(135,190)"/>
<path d="M0 0 C-0.8125 1.9375 -0.8125 1.9375 -2 4 C-2.99 4.33 -3.98 4.66 -5 5 C-5.66 4.34 -6.32 3.68 -7 3 C-3.375 0 -3.375 0 0 0 Z " fill="#9DA4AE" transform="translate(335,368)"/>
<path d="M0 0 C3.3 0.99 6.6 1.98 10 3 C5.99998285 4.00000429 3.94476647 3.80688405 0 3 C0 2.01 0 1.02 0 0 Z " fill="#429BC0" transform="translate(218,335)"/>
<path d="M0 0 C2.375 -0.1875 2.375 -0.1875 5 0 C5.66 0.99 6.32 1.98 7 3 C4 4 4 4 1.8125 3.0625 C1.214375 2.711875 0.61625 2.36125 0 2 C0 1.34 0 0.68 0 0 Z " fill="#D1EBF0" transform="translate(216,332)"/>
<path d="M0 0 C0.99 0.33 1.98 0.66 3 1 C3 3.31 3 5.62 3 8 C2.34 8 1.68 8 1 8 C0.67 5.36 0.34 2.72 0 0 Z " fill="#1FA5E0" transform="translate(179,312)"/>
<path d="M0 0 C2 1.75 2 1.75 4 4 C4 5.32 4 6.64 4 8 C3.34 8 2.68 8 2 8 C0.23537317 4.91190305 0 3.76687864 0 0 Z " fill="#E6EAEF" transform="translate(347,274)"/>
<path d="M0 0 C2.97 0 5.94 0 9 0 C8.67 0.66 8.34 1.32 8 2 C4.9375 2.625 4.9375 2.625 2 3 C2 2.34 2 1.68 2 1 C1.34 0.67 0.68 0.34 0 0 Z " fill="#BBC9D0" transform="translate(273,225)"/>
<path d="M0 0 C1.65 1.65 3.3 3.3 5 5 C4.67 5.99 4.34 6.98 4 8 C4 7.34 4 6.68 4 6 C2.68 5.34 1.36 4.68 0 4 C0 2.68 0 1.36 0 0 Z " fill="#285280" transform="translate(149,312)"/>
<path d="M0 0 C0.33 0 0.66 0 1 0 C1.66 3.3 2.32 6.6 3 10 C0.9375 8.375 0.9375 8.375 -1 6 C-0.75 2.75 -0.75 2.75 0 0 Z " fill="#153153" transform="translate(151,257)"/>
<path d="M0 0 C0.66 0 1.32 0 2 0 C1.67 1.32 1.34 2.64 1 4 C-0.65 4.33 -2.3 4.66 -4 5 C-2.71937515 3.2925002 -1.38232443 1.62626404 0 0 Z " fill="#7B848E" transform="translate(327,227)"/>
<path d="M0 0 C0.66 0 1.32 0 2 0 C2.33 2.31 2.66 4.62 3 7 C2.01 7 1.02 7 0 7 C-0.93423645 3.98968256 -1.04449911 3.13349732 0 0 Z " fill="#DADFE1" transform="translate(345,185)"/>
<path d="M0 0 C-0.66 1.32 -1.32 2.64 -2 4 C-2.99 4 -3.98 4 -5 4 C-5 4.66 -5 5.32 -5 6 C-5.66 6 -6.32 6 -7 6 C-5.52522876 2.59668175 -4.14385429 0 0 0 Z " fill="#6BB5C5" transform="translate(149,174)"/>
</svg>
