<svg xmlns="http://www.w3.org/2000/svg" width="640" height="640" viewBox="0 0 640 640" version="1.1"><path d="M 282.644 247.250 C 280.272 251.716, 279.135 253.614, 274.378 261.054 C 270.536 267.063, 264.921 276.001, 236.720 320.999 C 230.689 330.623, 224.459 340.379, 222.877 342.679 C 221.295 344.979, 220 347.136, 220 347.472 C 220 347.809, 219.517 348.628, 218.927 349.292 C 217.736 350.633, 201.360 376.660, 196.774 384.500 C 193.998 389.245, 193.704 388.742, 195.512 382.343 C 195.799 381.329, 195.137 382.300, 194.043 384.500 C 190.741 391.136, 191.709 392.739, 196.846 389.141 C 202.226 385.372, 233.073 367, 234.021 367 C 234.559 367, 235 367.356, 235 367.792 C 235 368.555, 230.989 379.235, 221.966 402.500 C 217.571 413.832, 200.760 454.916, 191.482 477 C 188.593 483.875, 185.923 490.512, 185.548 491.750 C 184.323 495.787, 186.418 494.116, 190.568 487.745 C 199.053 474.717, 202 470.014, 202 469.500 C 202 469.209, 205.988 462.789, 210.861 455.235 C 215.735 447.681, 221.521 438.350, 223.718 434.500 C 227.258 428.298, 233.855 417.130, 237.289 411.524 C 237.955 410.437, 240.114 407.062, 242.088 404.024 C 249.332 392.870, 259 377.165, 259 376.551 C 259 376.203, 259.854 374.700, 260.897 373.210 C 263.149 369.992, 273.794 353.436, 283.328 338.324 C 287.083 332.371, 293.264 323.009, 297.063 317.521 C 303.087 308.818, 303.786 307.357, 302.525 306.097 C 300.580 304.152, 294.076 305.495, 279.067 310.942 C 267.455 315.156, 263.354 315.704, 263.681 313 C 263.781 312.175, 265.411 307.225, 267.303 302 C 269.195 296.775, 273.550 282.600, 276.981 270.500 C 280.412 258.400, 283.855 247.488, 284.632 246.250 C 285.410 245.012, 285.669 244, 285.208 244 C 284.747 244, 283.594 245.463, 282.644 247.250 M 208.188 346.688 C 207.028 349.836, 206.242 352.575, 206.442 352.775 C 206.641 352.975, 207.764 350.573, 208.938 347.438 C 210.111 344.302, 210.896 341.563, 210.683 341.350 C 210.470 341.137, 209.347 343.539, 208.188 346.688 M 282.005 357.750 C 279.630 361.462, 277.030 365.512, 276.228 366.750 C 275.426 367.988, 275.019 369, 275.324 369 C 275.628 369, 277.544 366.300, 279.581 363 C 281.618 359.700, 283.670 357, 284.142 357 C 284.614 357, 285.064 358.688, 285.142 360.750 L 285.284 364.500 285.936 360.500 C 286.294 358.300, 286.251 356.094, 285.840 355.597 C 285.430 355.100, 285.538 353.863, 286.082 352.847 C 288.281 348.739, 286.064 351.404, 282.005 357.750 M 204.111 357.111 C 203.495 358.878, 203.166 360.499, 203.380 360.713 C 203.594 360.927, 204.273 359.656, 204.889 357.889 C 205.505 356.122, 205.834 354.501, 205.620 354.287 C 205.406 354.073, 204.727 355.344, 204.111 357.111 M 325.250 423.746 C 330.613 423.925, 339.387 423.925, 344.750 423.746 C 350.113 423.566, 345.725 423.419, 335 423.419 C 324.275 423.419, 319.887 423.566, 325.250 423.746" stroke="none" fill="#e5b215" fill-rule="evenodd"/><path d="M 231.627 193.681 C 230.883 196.130, 231.512 265.845, 232.284 266.618 C 232.619 266.953, 235.024 263.933, 237.628 259.908 C 242.656 252.136, 244.485 251.850, 241.059 259.371 C 239.926 261.857, 239 264.261, 239 264.714 C 239 266.225, 220.921 315.387, 201.200 367.500 C 193.768 387.141, 192.595 391.644, 196.774 384.500 C 201.360 376.660, 217.736 350.633, 218.927 349.292 C 219.517 348.628, 220 347.809, 220 347.472 C 220 347.136, 221.295 344.979, 222.877 342.679 C 224.459 340.379, 230.689 330.623, 236.720 320.999 C 264.921 276.001, 270.536 267.063, 274.378 261.054 C 279.135 253.614, 280.272 251.716, 282.644 247.250 L 284.370 244 319.475 244 C 357.973 244, 362.908 244.560, 370.445 249.784 C 372.742 251.376, 375.458 254.593, 376.945 257.482 C 379.185 261.834, 379.500 263.683, 379.500 272.473 C 379.500 281.440, 379.203 283.105, 376.689 288.224 C 375.143 291.373, 372.053 295.511, 369.822 297.420 C 362.861 303.379, 358.917 304.247, 336.500 304.750 C 325.500 304.997, 315.962 305.639, 315.305 306.176 C 314.293 307.004, 307.669 317.523, 288.397 348.907 C 286.571 351.882, 285.270 354.627, 285.505 355.009 C 285.741 355.391, 301.812 355.786, 321.217 355.888 C 342.392 355.999, 358.093 356.499, 360.483 357.138 C 375.489 361.150, 382.480 370.327, 383.733 387.657 C 384.720 401.296, 378.604 414.079, 368.643 419.198 C 360.590 423.336, 354.396 423.928, 318.750 423.965 L 285 424 285 390.500 C 285 372.075, 284.608 357, 284.129 357 C 283.649 357, 275.662 369.152, 266.379 384.005 C 257.095 398.858, 248.292 412.921, 246.815 415.255 C 245.338 417.590, 241.374 424.123, 238.006 429.773 L 231.883 440.045 231.303 451.837 C 230.984 458.323, 231.047 466.224, 231.444 469.395 L 232.164 475.160 298.332 474.679 C 364.236 474.201, 369.289 473.948, 384 470.393 C 403.641 465.646, 421.178 452.202, 428.933 435.946 C 434.661 423.938, 436.310 415.463, 436.414 397.500 C 436.489 384.447, 436.197 381.527, 434.168 375 C 428.579 357.021, 419.119 345.954, 402.596 338.064 C 397.043 335.413, 389.913 332.706, 386.750 332.050 C 383.587 331.394, 381 330.516, 381 330.100 C 381 329.684, 383.363 328.802, 386.250 328.140 C 389.137 327.478, 395.775 324.866, 401 322.336 C 416.370 314.894, 427.158 302.438, 431.489 287.130 C 434.919 275.009, 434.012 254.894, 429.415 241.095 C 421.047 215.980, 402.730 201.131, 371.680 194.292 C 365.657 192.965, 353.843 192.642, 298.339 192.286 C 235.034 191.880, 232.155 191.940, 231.627 193.681" stroke="none" fill="#231b14" fill-rule="evenodd"/></svg>